<svg width="242" height="242" viewBox="0 0 242 242" fill="none" xmlns="http://www.w3.org/2000/svg">
<g clip-path="url(#clip0_1135_3080)">
<path d="M29.1098 140.685C35.1636 140.685 40.0712 135.778 40.0712 129.724C40.0712 123.67 35.1636 118.763 29.1098 118.763C23.056 118.763 18.1484 123.67 18.1484 129.724C18.1484 135.778 23.056 140.685 29.1098 140.685Z" fill="#FDC600"/>
<path d="M75.0942 117.655C81.148 117.655 86.0556 112.748 86.0556 106.694C86.0556 100.64 81.148 95.7324 75.0942 95.7324C69.0404 95.7324 64.1328 100.64 64.1328 106.694C64.1328 112.748 69.0404 117.655 75.0942 117.655Z" fill="#FDC600"/>
<path d="M121.075 71.5917C127.128 71.5917 132.036 66.6841 132.036 60.6303C132.036 54.5765 127.128 49.6689 121.075 49.6689C115.021 49.6689 110.113 54.5765 110.113 60.6303C110.113 66.6841 115.021 71.5917 121.075 71.5917Z" fill="#FDC600"/>
<path d="M167.063 94.6239C173.117 94.6239 178.024 89.7163 178.024 83.6625C178.024 77.6087 173.117 72.7012 167.063 72.7012C161.009 72.7012 156.102 77.6087 156.102 83.6625C156.102 89.7163 161.009 94.6239 167.063 94.6239Z" fill="#FDC600"/>
<path d="M213.043 25.5292C219.097 25.5292 224.005 20.6216 224.005 14.5678C224.005 8.51402 219.097 3.60645 213.043 3.60645C206.99 3.60645 202.082 8.51402 202.082 14.5678C202.082 20.6216 206.99 25.5292 213.043 25.5292Z" fill="#FDC600"/>
<path d="M30.1227 129.724C30.1227 125.88 32.1027 122.5 35.0969 120.544C33.3755 119.419 31.32 118.763 29.1098 118.763C23.056 118.763 18.1484 123.67 18.1484 129.724C18.1484 135.778 23.056 140.685 29.1098 140.685C31.32 140.685 33.3751 140.029 35.0969 138.904C32.1031 136.948 30.1227 133.568 30.1227 129.724Z" fill="white" fill-opacity="0.1"/>
<path d="M76.1066 106.694C76.1066 102.85 78.087 99.4702 81.0813 97.5134C79.3599 96.3885 77.3043 95.7324 75.0942 95.7324C69.0404 95.7324 64.1328 100.64 64.1328 106.694C64.1328 112.748 69.0404 117.655 75.0942 117.655C77.3043 117.655 79.3599 116.999 81.0813 115.874C78.087 113.917 76.1066 110.537 76.1066 106.694Z" fill="white" fill-opacity="0.1"/>
<path d="M122.087 60.6303C122.087 56.7862 124.067 53.4067 127.062 51.4499C125.34 50.325 123.285 49.6689 121.075 49.6689C115.021 49.6689 110.113 54.5765 110.113 60.6303C110.113 66.6841 115.021 71.5917 121.075 71.5917C123.285 71.5917 125.34 70.9356 127.062 69.8107C124.067 67.8539 122.087 64.474 122.087 60.6303Z" fill="white" fill-opacity="0.1"/>
<path d="M168.075 83.6625C168.075 79.8184 170.055 76.4389 173.05 74.4821C171.329 73.3572 169.273 72.7012 167.063 72.7012C161.009 72.7012 156.102 77.6088 156.102 83.6625C156.102 89.7163 161.009 94.6239 167.063 94.6239C169.273 94.6239 171.329 93.9679 173.05 92.8429C170.055 90.8861 168.075 87.5062 168.075 83.6625Z" fill="white" fill-opacity="0.1"/>
<path d="M214.056 14.5678C214.056 10.7237 216.036 7.34421 219.031 5.38741C217.309 4.26249 215.254 3.60645 213.043 3.60645C206.99 3.60645 202.082 8.51404 202.082 14.5678C202.082 20.6216 206.99 25.5292 213.043 25.5292C215.254 25.5292 217.309 24.8731 219.031 23.7482C216.036 21.7914 214.056 18.4119 214.056 14.5678Z" fill="white" fill-opacity="0.1"/>
<path d="M40.96 170.298H17.2497C15.6124 170.298 14.2852 171.625 14.2852 173.262V238.517H43.9245V173.262C43.9245 171.626 42.5973 170.298 40.96 170.298Z" fill="#0F6DB4"/>
<path d="M86.9483 147.268H63.2379C61.6007 147.268 60.2734 148.595 60.2734 150.232V238.518H89.9128V150.232C89.9132 148.595 88.5855 147.268 86.9483 147.268Z" fill="#0F6DB4"/>
<path d="M132.933 101.003H109.222C107.585 101.003 106.258 102.33 106.258 103.967V238.517H135.897V103.967C135.897 102.33 134.57 101.003 132.933 101.003Z" fill="#0F6DB4"/>
<path d="M178.913 124.236H155.203C153.566 124.236 152.238 125.564 152.238 127.201V238.518H181.878V127.201C181.878 125.564 180.55 124.236 178.913 124.236Z" fill="#0F6DB4"/>
<path d="M224.901 54.8184H201.191C199.554 54.8184 198.227 56.1456 198.227 57.7829V238.517H227.866V57.7829C227.866 56.146 226.539 54.8184 224.901 54.8184Z" fill="#0F6DB4"/>
<path d="M35.4654 170.298H17.2497C15.6124 170.298 14.2852 171.625 14.2852 173.262V238.517H32.5009V173.262C32.5009 171.626 33.8281 170.298 35.4654 170.298Z" fill="white" fill-opacity="0.1"/>
<path d="M81.4536 147.266H63.2379C61.6007 147.266 60.2734 148.593 60.2734 150.23V238.516H78.4891V150.231C78.4891 148.593 79.8164 147.266 81.4536 147.266Z" fill="#0F6DB4"/>
<path d="M127.438 101.003H109.222C107.585 101.003 106.258 102.33 106.258 103.967V238.517H124.474V103.967C124.474 102.33 125.801 101.003 127.438 101.003Z" fill="white" fill-opacity="0.1"/>
<path d="M173.418 124.236H155.203C153.566 124.236 152.238 125.564 152.238 127.201V238.518H170.454V127.201C170.454 125.564 171.782 124.236 173.418 124.236Z" fill="white" fill-opacity="0.1"/>
<path d="M219.407 54.8184H201.191C199.554 54.8184 198.227 56.1456 198.227 57.7829V238.517H216.442V57.7829C216.442 56.146 217.769 54.8184 219.407 54.8184Z" fill="white" fill-opacity="0.1"/>
<path d="M14.5273 129.661C14.5273 137.66 21.0353 144.167 29.0336 144.167C37.0319 144.167 43.5399 137.659 43.5399 129.661C43.5399 128.587 43.4189 127.54 43.1963 126.532L64.0376 116.094C66.7001 119.178 70.6331 121.136 75.0174 121.136C86.2709 121.136 93.244 108.81 87.4606 99.1826L113.576 73.0235C119.564 76.6067 127.326 75.4255 131.981 70.0315L152.823 80.4702C150.814 89.5721 157.786 98.1054 166.986 98.1054C179.531 98.1054 186.166 83.1558 177.727 73.8586L208.128 28.1783C217.58 31.5351 227.476 24.4665 227.476 14.5058C227.476 6.50703 220.968 -0.000976562 212.97 -0.000976562C204.971 -0.000976562 198.463 6.50703 198.463 14.5053C198.463 18.2506 199.89 21.6694 202.23 24.2458L171.828 69.9262C166.257 67.9471 159.973 69.539 156.006 74.1347L135.165 63.6961C135.387 62.6879 135.508 61.6419 135.508 60.5676C135.508 52.5688 129 46.0613 121.002 46.0613C109.753 46.0613 102.774 58.3844 108.559 68.0147L82.4443 94.1739C71.6327 87.7037 58.1053 97.3038 60.8557 109.758L40.0144 120.196C31.274 110.072 14.5273 116.232 14.5273 129.661ZM212.97 7.08887C217.059 7.08887 220.386 10.4159 220.386 14.5053C220.386 18.5947 217.059 21.9218 212.97 21.9218C208.88 21.9218 205.553 18.5947 205.553 14.5053C205.553 10.4159 208.88 7.08887 212.97 7.08887ZM166.986 76.1822C171.075 76.1822 174.402 79.5092 174.402 83.5987C174.402 87.6881 171.075 91.0151 166.986 91.0151C162.896 91.0151 159.569 87.6881 159.569 83.5987C159.569 79.5092 162.896 76.1822 166.986 76.1822ZM121.002 53.1511C125.091 53.1511 128.418 56.4781 128.418 60.5676C128.418 64.657 125.091 67.984 121.002 67.984C116.912 67.984 113.585 64.657 113.585 60.5676C113.585 56.4781 116.912 53.1511 121.002 53.1511ZM75.0174 99.2129C79.1068 99.2129 82.4339 102.54 82.4339 106.629C82.4339 110.719 79.1068 114.046 75.0174 114.046C70.928 114.046 67.601 110.719 67.601 106.629C67.601 102.54 70.928 99.2129 75.0174 99.2129ZM29.0336 137.078C24.9442 137.078 21.6172 133.751 21.6172 129.661C21.6172 125.572 24.9442 122.245 29.0336 122.245C33.1231 122.245 36.4501 125.572 36.4501 129.661C36.4501 133.751 33.1235 137.078 29.0336 137.078Z" fill="#011932"/>
<path d="M235.718 234.91H231.331V157.013C231.331 155.055 229.745 153.468 227.786 153.468C225.828 153.468 224.241 155.055 224.241 157.013V234.91H201.691V58.3018H224.241V140.471C224.241 142.429 225.828 144.016 227.786 144.016C229.745 144.016 231.331 142.429 231.331 140.471V57.7213C231.331 54.132 228.411 51.2119 224.822 51.2119H201.112C197.522 51.2119 194.602 54.1325 194.602 57.7213V234.91H185.347V127.138C185.347 123.549 182.427 120.629 178.839 120.629H175.255C173.297 120.629 171.71 122.215 171.71 124.173C171.71 126.132 173.297 127.718 175.255 127.718H178.258V234.91H155.709V127.718H158.712C160.67 127.718 162.257 126.132 162.257 124.173C162.257 122.215 160.67 120.629 158.712 120.629H155.128C151.538 120.629 148.619 123.549 148.619 127.138V234.91H139.364V103.906C139.364 100.317 136.444 97.397 132.855 97.397H109.144C105.555 97.397 102.635 100.317 102.635 103.906V234.91H93.3809V150.169C93.3809 146.58 90.4603 143.66 86.8714 143.66H63.1611C59.5718 143.66 56.6517 146.58 56.6517 150.169V234.91H47.3971V173.2C47.3971 169.61 44.477 166.691 40.8881 166.691H17.1754C13.5861 166.691 10.666 169.611 10.666 173.2V234.91H6.2793C4.32108 234.91 2.73438 236.497 2.73438 238.455C2.73438 240.413 4.32108 242 6.2793 242H235.718C237.677 242 239.263 240.413 239.263 238.455C239.263 236.497 237.676 234.91 235.718 234.91ZM17.7559 234.91V173.781H40.3053V234.91H17.7559ZM63.7396 234.91V150.749H86.2896V234.91H63.7396ZM109.724 234.91V104.487H132.273V234.91H109.724Z" fill="#011932"/>
</g>
<defs>
<clipPath id="clip0_1135_3080">
<rect width="242" height="242" fill="white"/>
</clipPath>
</defs>
</svg>
