<svg width="242" height="242" viewBox="0 0 242 242" fill="none" xmlns="http://www.w3.org/2000/svg">
<g clip-path="url(#clip0_1135_3181)">
<path d="M126.108 35.3305L22.9102 73.2796V198.269L215.337 202.995L213.449 61.2122L134.798 35.3305C131.973 34.4211 128.934 34.4211 126.108 35.3305Z" fill="#C7E7FF"/>
<path d="M121.32 26.5664L22.9102 54.9461V73.2785L126.108 40.056C128.933 39.1466 131.973 39.1466 134.798 40.056L209.636 64.1487V202.994L219.089 198.268V54.9461L121.32 26.5664Z" fill="#B4D2D7"/>
<path d="M121.32 26.5664L22.9102 54.9461V73.2785L126.108 40.056C128.933 39.1466 131.973 39.1466 134.798 40.056L209.636 64.1487V202.994L219.089 198.268V54.9461L121.32 26.5664Z" fill="#A6D9FF"/>
<path d="M101.819 112.252H50.3281C46.4126 112.252 43.2383 115.426 43.2383 119.342V188.815L106.546 193.541L101.819 112.252Z" fill="#A5D9FF"/>
<path d="M104.183 112.252H101.82V185.27C101.82 187.228 100.233 188.815 98.2748 188.815H43.2383V198.268L77.2553 202.994L111.272 198.268V119.342C111.273 115.426 108.099 112.252 104.183 112.252Z" fill="#C7E7FF"/>
<path d="M233.776 51.331L129.692 17.8234C124.041 16.0042 117.962 16.0042 112.311 17.8234L8.22739 51.331C5.94966 52.0641 4.27173 53.9301 3.7329 56.1852C3.14397 59.542 6.26729 60.4698 8.17824 59.8544L119.916 27.191C120.622 26.9637 121.382 26.9637 122.088 27.191L233.826 59.8544C235.737 60.4698 237.748 59.6251 238.271 56.1852C237.732 53.9301 236.054 52.0645 233.776 51.331Z" fill="#0F6DB4"/>
<path d="M233.826 58.4366L127.358 24.161C123.225 22.8305 118.779 22.8305 114.646 24.161L8.17796 58.4366C6.26701 59.052 4.32392 57.9606 3.73263 56.1853C3.61163 56.692 3.54688 57.2176 3.54688 57.755C3.54688 62.3322 8.00686 65.5817 12.3638 64.1789L116.657 30.6038C119.482 29.6944 122.522 29.6944 125.348 30.6038L229.641 64.1789C233.998 65.5817 238.458 62.3322 238.458 57.755C238.458 57.2176 238.393 56.6915 238.272 56.1853C237.68 57.9606 235.737 59.052 233.826 58.4366Z" fill="white" fill-opacity="0.1"/>
<path d="M235.383 213.875L234.391 198.041H10.9579C6.99448 198.041 3.78125 203.424 3.78125 210.063L235.383 213.875Z" fill="#0F6DB4"/>
<path d="M231.367 198.269V201.813C231.367 203.771 229.78 205.358 227.822 205.358H3.54688C3.54688 209.274 6.72123 212.448 10.6367 212.448H231.367C235.283 212.448 238.457 209.274 238.457 205.358C238.457 201.443 235.283 198.269 231.367 198.269Z" fill="white" fill-opacity="0.1"/>
<path d="M184.589 112.252H142.551C138.635 112.252 135.461 115.426 135.461 119.342V152.795L186.827 157.032C188.785 157.032 190.372 155.445 190.372 153.487L184.589 112.252Z" fill="#A5D9FF"/>
<path d="M186.952 112.252H184.589V149.251C184.589 151.208 183.002 152.795 181.044 152.795H135.461V162.249L169.409 168.419C169.405 168.351 194.042 162.249 194.042 162.249V119.342C194.042 115.426 190.868 112.252 186.952 112.252Z" fill="#0F6DB4"/>
<path d="M200.715 169.34L196.405 162.25H126.008V169.34L197.17 172.885C199.128 172.885 200.715 171.298 200.715 169.34Z" fill="#B4D2D7"/>
<path d="M203.495 162.25H196.405V165.795C196.405 167.753 194.818 169.34 192.86 169.34H126.008C126.008 173.255 129.182 176.43 133.098 176.43H196.405C200.321 176.43 203.495 173.255 203.495 169.34V162.25Z" fill="#9BB9C3"/>
<path d="M127.684 83.7862C134.029 77.4413 138.329 61.5993 132.742 52.2988C124.344 52.4194 111.749 55.5356 105.404 61.8805C98.4314 68.8531 99.3493 76.055 103.055 81.9854C109.323 89.0994 120.711 90.7584 127.684 83.7862Z" fill="#0F6DB4"/>
<path d="M140.563 53.9249C139.431 52.7924 136.506 52.2437 132.737 52.2976C132.617 60.6952 129.501 73.2906 123.156 79.6355C116.183 86.6082 108.981 85.6903 103.051 81.9842C104.231 83.8729 105.692 85.6331 107.273 87.215C113.822 93.7637 123.416 98.2818 132.609 89.0886C141.801 79.8964 144.218 57.58 140.563 53.9249Z" fill="#0F6DB4"/>
<path d="M212.782 232.235L234.785 195.093C235.482 193.911 235.517 192.434 234.878 191.22L205.464 146.076L168.087 145.185C165.416 145.122 162.913 146.539 161.521 148.903L139.087 187C137.694 189.364 137.624 192.316 138.902 194.745L156.053 227.327L209.499 234.094C210.834 234.126 212.085 233.417 212.782 232.235Z" fill="#0F6DB4"/>
<path d="M234.759 182.623L214.354 147.279C213.087 145.086 210.747 143.734 208.214 143.734H202.854L226.33 184.395C226.963 185.492 226.963 186.843 226.33 187.94L209.335 217.375C208.702 218.472 207.532 219.148 206.265 219.148H157.852L161.263 225.056C162.529 227.249 164.87 228.601 167.403 228.601H208.214C210.747 228.601 213.087 227.249 214.353 225.056L234.759 189.712C236.026 187.519 236.026 184.816 234.759 182.623Z" fill="white" fill-opacity="0.1"/>
<path d="M212.9 189.476H196.255L201.153 168.981C201.565 167.258 199.346 166.181 198.247 167.57L171.813 200.975C170.955 202.06 171.728 203.656 173.111 203.656H189.756L184.858 224.15C184.446 225.874 186.665 226.951 187.764 225.561L214.197 192.157C215.055 191.072 214.283 189.476 212.9 189.476Z" fill="#0F6DB4"/>
<path d="M199.068 182.385H189.165L185.726 167.342L167.09 190.892L182.666 196.564L180.423 205.947L193.626 196.564L199.068 182.385Z" fill="#0F6DB4"/>
<path d="M188.767 182.382L191.32 182.386L196.218 161.891C196.63 160.168 194.411 159.091 193.312 160.481L187.881 167.344L185.326 178.011C184.792 180.237 186.478 182.378 188.767 182.382Z" fill="#0F6DB4"/>
<path d="M179.53 190.894H167.09L164.723 193.885C163.865 194.969 164.638 196.565 166.021 196.565H182.666L182.977 195.262C183.51 193.034 181.821 190.894 179.53 190.894Z" fill="#0F6DB4"/>
<path d="M205.811 182.386H199.07L180.424 205.948L177.769 217.06C177.357 218.783 179.576 219.86 180.675 218.471L207.109 185.066C207.967 183.982 207.194 182.386 205.811 182.386Z" fill="#0F6DB4"/>
<path d="M235.492 195.558L235.934 194.793C237.828 191.513 237.827 187.438 235.934 184.158L222.622 161.101C222.628 161.02 222.634 160.939 222.634 160.855V118.151C222.634 116.193 221.047 114.606 219.089 114.606C217.132 114.606 215.544 116.193 215.544 118.151V148.842L215.528 148.814C213.635 145.535 210.106 143.497 206.319 143.497H197.584V119.342C197.584 113.479 192.813 108.708 186.949 108.708H142.548C136.684 108.708 131.913 113.479 131.913 119.342V158.704H126.005C124.047 158.704 122.46 160.291 122.46 162.249V169.339C122.46 175.203 127.231 179.974 133.095 179.974H138.309L135.893 184.158C134.013 187.415 134.002 191.455 135.856 194.724H46.7793V119.343C46.7793 117.388 48.3698 115.798 50.3242 115.798H104.179C106.133 115.798 107.724 117.388 107.724 119.343V187.871C107.724 189.829 109.311 191.415 111.268 191.415C113.226 191.415 114.813 189.829 114.813 187.871V119.343C114.813 113.479 110.043 108.708 104.179 108.708H50.3242C44.4599 108.708 39.6894 113.479 39.6894 119.343V194.724H26.455V75.9082C26.455 73.95 24.8679 72.3633 22.9101 72.3633C20.9524 72.3633 19.3652 73.95 19.3652 75.9082V194.724H10.6348C4.77052 194.724 0 199.495 0 205.359C0 211.223 4.77052 215.994 10.6348 215.994H148.133L156.298 230.136C158.192 233.416 161.721 235.454 165.508 235.454H206.319C210.106 235.454 213.635 233.416 215.528 230.136L223.694 215.994H231.365C237.229 215.994 242 211.223 242 205.359C242 200.958 239.312 197.173 235.492 195.558ZM190.494 119.343V143.498H168.294V115.798H186.949C188.904 115.798 190.494 117.388 190.494 119.343ZM139.003 119.343C139.003 117.388 140.593 115.798 142.547 115.798H161.203V144.418C159.176 145.318 157.439 146.839 156.298 148.815L150.588 158.705H139.003L139.003 119.343ZM133.094 172.884C131.139 172.884 129.549 171.294 129.549 169.34V165.795H146.495L142.401 172.884H133.094ZM10.6348 208.904C8.68033 208.904 7.08984 207.314 7.08984 205.359C7.08984 203.404 8.68033 201.814 10.6348 201.814H139.934C139.938 201.814 139.942 201.813 139.946 201.813L144.04 208.904H10.6348ZM209.389 226.591C208.758 227.685 207.581 228.364 206.319 228.364H165.508C164.246 228.364 163.069 227.684 162.438 226.591L142.033 191.249C141.402 190.155 141.402 188.797 142.033 187.704L162.438 152.36C163.069 151.268 164.246 150.588 165.508 150.588H206.319C207.582 150.588 208.758 151.267 209.389 152.36L229.795 187.704C230.426 188.797 230.426 190.155 229.795 191.249L209.389 226.591ZM231.365 208.904H227.787L231.858 201.852C233.58 202.094 234.91 203.572 234.91 205.359C234.91 207.314 233.32 208.904 231.365 208.904Z" fill="#011932"/>
<path d="M4.23169 66.0742C6.92063 68.0343 10.2798 68.5746 13.448 67.5536L117.741 33.9785C119.873 33.2927 122.127 33.2927 124.259 33.9785L215.545 63.3668V103.972C215.545 105.93 217.132 107.517 219.09 107.517C221.048 107.517 222.635 105.93 222.635 103.972V65.6493L228.552 67.5546C229.604 67.893 230.676 68.0594 231.738 68.0594C233.876 68.0594 235.972 67.3839 237.768 66.0747C240.458 64.1151 242 61.083 242 57.7555C242 53.27 239.131 49.3318 234.861 47.9568L202.163 37.4303V30.6987L214.091 34.5386C214.452 34.6544 214.818 34.7097 215.178 34.7097C216.676 34.7097 218.068 33.753 218.552 32.25C219.152 30.3868 218.127 28.3893 216.263 27.7891L150.806 6.71663C148.942 6.11872 146.946 7.14107 146.345 9.00523C145.745 10.8684 146.77 12.8659 148.633 13.4657L162.734 18.0051V24.7362L130.777 14.4483C124.381 12.3899 117.62 12.3899 111.224 14.4483L79.2673 24.7362V18.0051L93.3676 13.4657C95.2313 12.8659 96.2555 10.8689 95.6557 9.00523C95.0559 7.14154 93.0594 6.11872 91.1948 6.71663L25.7371 27.7891C23.8734 28.3893 22.8491 30.3863 23.4489 32.25C23.9325 33.753 25.3244 34.7097 26.8228 34.7097C27.1825 34.7097 27.5488 34.6544 27.9099 34.5386L39.8374 30.6987V37.4298L7.13947 47.9564C2.86902 49.3313 0 53.2695 0 57.755C0 61.0825 1.54228 64.1146 4.23169 66.0742ZM169.823 20.2875L195.073 28.4163V35.1474L169.823 27.0186V20.2875ZM46.9267 28.4163L72.1765 20.2875V27.0186L46.9267 35.1474V28.4163ZM9.3118 54.7054L113.395 21.1974C118.37 19.5956 123.629 19.596 128.604 21.1969L232.688 54.7049C234.017 55.1332 234.91 56.3588 234.91 57.755C234.91 58.7906 234.43 59.7345 233.593 60.3447C232.755 60.9549 231.71 61.1231 230.724 60.805L126.432 27.2299C124.655 26.6575 122.828 26.3716 121 26.3716C119.173 26.3716 117.345 26.6575 115.568 27.2294L11.2757 60.8046C10.2907 61.1231 9.24421 60.9544 8.40714 60.3442C7.57006 59.734 7.08984 58.7906 7.08984 57.755C7.08984 56.3588 7.98316 55.1332 9.3118 54.7054Z" fill="#011932"/>
<path d="M53.8711 160.237V173.916C53.8711 175.875 55.4583 177.461 57.416 177.461C59.3738 177.461 60.9609 175.875 60.9609 173.916V160.237C60.9609 158.279 59.3738 156.692 57.416 156.692C55.4583 156.692 53.8711 158.28 53.8711 160.237Z" fill="#011932"/>
<path d="M130.097 86.5833C127.194 89.4873 124.257 90.8367 121.12 90.7374C119.152 90.6509 117.523 92.2013 117.455 94.158C117.387 96.1148 118.919 97.7554 120.876 97.8225C121.076 97.8296 121.275 97.8329 121.475 97.8329C126.385 97.8325 130.97 95.7362 135.11 91.5963C141.598 85.1081 144.109 74.3741 144.888 70.0606C145.575 66.2501 145.853 62.5922 145.69 59.4845C145.488 55.6219 144.629 52.9835 143.065 51.4191C141.5 49.8546 138.862 48.9962 135 48.7939C131.892 48.6323 128.235 48.9088 124.424 49.5965C120.11 50.375 109.376 52.8857 102.888 59.3739C94.7912 67.4709 94.6565 77.7068 102.375 87.0956L97.3 92.171C95.9156 93.5559 95.9156 95.8001 97.3 97.1845C97.992 97.8764 98.8995 98.2224 99.8065 98.2224C100.714 98.2224 101.621 97.8764 102.313 97.1845L130.181 69.3171C131.565 67.9322 131.565 65.6881 130.181 64.3037C128.797 62.9197 126.552 62.9197 125.168 64.3037L107.412 82.059C102.386 75.68 102.545 69.7435 107.901 64.3873C111.285 61.0031 117.665 58.1327 124.968 56.7081C132.015 55.3331 136.796 55.8408 138.031 56.4538C138.643 57.6884 139.151 62.4702 137.776 69.5161C136.352 76.8187 133.481 83.199 130.097 86.5833Z" fill="#011932"/>
<path d="M205.808 178.841H193.654L197.508 162.716C198.08 160.324 196.934 157.904 194.722 156.83C192.51 155.756 189.9 156.353 188.374 158.281L161.941 191.685C160.693 193.262 160.462 195.366 161.338 197.176C162.214 198.987 164.007 200.111 166.018 200.111H178.171L174.318 216.237C173.746 218.628 174.892 221.048 177.104 222.122C177.839 222.479 178.619 222.651 179.388 222.651C180.932 222.651 182.433 221.958 183.451 220.672L209.884 187.267C211.132 185.69 211.363 183.586 210.487 181.776C209.611 179.965 207.818 178.841 205.808 178.841ZM183.203 209.561L186.111 197.39C186.363 196.335 186.118 195.222 185.446 194.37C184.774 193.518 183.748 193.021 182.663 193.021H169.925L188.623 169.392L185.714 181.562C185.462 182.617 185.707 183.73 186.379 184.582C187.052 185.434 188.077 185.931 189.162 185.931H201.901L183.203 209.561Z" fill="#011932"/>
</g>
<defs>
<clipPath id="clip0_1135_3181">
<rect width="242" height="242" fill="white"/>
</clipPath>
</defs>
</svg>
