<svg width="242" height="242" viewBox="0 0 242 242" fill="none" xmlns="http://www.w3.org/2000/svg">
<g clip-path="url(#clip0_1135_3135)">
<path d="M211.565 123.968H196.665C194.606 123.968 192.783 122.635 192.163 120.671C190.855 116.525 189.195 112.535 187.217 108.737C186.265 106.908 186.609 104.675 188.066 103.217L198.604 92.6794C200.45 90.8337 200.45 87.8408 198.604 85.9951L178.153 65.5442C176.308 63.6985 173.315 63.6985 171.469 65.5442L160.931 76.0821C159.474 77.5398 157.24 77.8834 155.412 76.9315C151.613 74.9539 147.624 73.2934 143.477 71.9851C141.514 71.3655 140.18 69.5424 140.18 67.4835V52.584C140.18 49.9735 138.064 47.8574 135.454 47.8574H129.03L129.72 49.0537C130.795 50.9146 129.452 53.2405 127.303 53.2405H115.232V104.886C103.999 106.57 94.3382 113.102 88.4357 122.274V75.9994C87.8113 76.3028 87.1898 76.6115 86.5749 76.9315C84.7466 77.8834 82.5129 77.5398 81.0552 76.0821L70.5173 65.5442C68.6716 63.6985 65.6787 63.6985 63.833 65.5442L43.3821 85.9951C41.5364 87.8408 41.5364 90.8337 43.3821 92.6794L53.92 103.217C55.3777 104.675 55.7213 106.908 54.7693 108.737C52.7918 112.535 51.1313 116.525 49.823 120.671C49.2033 122.635 47.3803 123.968 45.3214 123.968H30.4219C27.8114 123.968 25.6953 126.084 25.6953 128.695V157.617C25.6953 160.227 27.8114 162.343 30.4219 162.343H45.3214C47.3808 162.343 49.2033 163.677 49.823 165.641C51.1313 169.787 52.7913 173.776 54.7693 177.575C55.7213 179.403 55.3777 181.637 53.92 183.094L43.3821 193.632C41.5364 195.477 41.5364 198.47 43.3821 200.316L63.833 220.767C65.6787 222.613 68.6716 222.613 70.5173 220.767L81.0552 210.229C82.5129 208.771 84.7462 208.428 86.5749 209.38C90.3731 211.357 94.3628 213.018 98.509 214.326C100.473 214.945 101.806 216.768 101.806 218.827V233.727C101.806 236.338 103.922 238.454 106.533 238.454H135.455C138.065 238.454 140.181 236.338 140.181 233.727V218.828C140.181 216.769 141.515 214.946 143.478 214.326C144.899 213.878 146.299 213.385 147.682 212.856C146.925 210.017 146.517 207.036 146.517 203.959C146.517 184.908 161.96 169.465 181.011 169.465C184.245 169.465 187.37 169.919 190.338 170.751C191.005 169.076 191.617 167.373 192.163 165.641C192.783 163.677 194.606 162.343 196.665 162.343H211.565C214.175 162.343 216.291 160.227 216.291 157.617V128.695C216.291 126.084 214.175 123.968 211.565 123.968Z" fill="#0F6DB4"/>
<path d="M211.571 123.968H196.672C194.612 123.968 192.79 122.635 192.17 120.671C190.862 116.525 189.202 112.535 187.224 108.737C186.272 106.908 186.616 104.675 188.073 103.217L198.611 92.6794C200.457 90.8337 200.457 87.8408 198.611 85.9951L178.16 65.5442C176.314 63.6985 173.322 63.6985 171.476 65.5442L160.938 76.0821C159.48 77.5398 157.247 77.8834 155.418 76.9315C151.62 74.9539 147.63 73.2934 143.484 71.9851C141.52 71.3655 140.187 69.5429 140.187 67.4835V52.584C140.187 49.9735 138.071 47.8574 135.46 47.8574H129.037L129.727 49.0537C130.801 50.9146 129.459 53.2405 127.31 53.2405H115.238V62.2262C128.13 69.8993 139.033 80.5638 146.988 93.2641C164.97 102.651 177.246 121.468 177.246 143.156C177.246 153.447 174.48 163.091 169.654 171.39C173.213 170.148 177.035 169.465 181.018 169.465C184.251 169.465 187.377 169.919 190.345 170.751C191.012 169.076 191.623 167.373 192.17 165.641C192.79 163.677 194.613 162.343 196.672 162.343H211.571C214.182 162.343 216.298 160.227 216.298 157.617V128.695C216.298 126.084 214.182 123.968 211.571 123.968Z" fill="white" fill-opacity="0.1"/>
<path d="M146.523 203.96C146.523 199.822 147.254 195.855 148.59 192.178C148.061 192.476 147.527 192.766 146.989 193.047C136.398 209.953 120.588 223.256 101.812 230.692V233.727C101.812 236.338 103.929 238.454 106.539 238.454H135.461C138.071 238.454 140.187 236.338 140.187 233.727V218.828C140.187 216.769 141.521 214.946 143.485 214.326C144.905 213.878 146.306 213.385 147.688 212.856C146.932 210.017 146.523 207.037 146.523 203.96Z" fill="white" fill-opacity="0.1"/>
<path d="M169.65 171.39C174.476 163.092 177.242 153.448 177.242 143.156C177.242 112.092 152.06 86.9102 120.996 86.9102C119.051 86.9102 117.129 87.0089 115.234 87.2018V104.887C104.002 106.571 94.3411 113.104 88.4386 122.276V97.2859C74.102 107.479 64.75 124.226 64.75 143.156C64.75 174.22 89.9322 199.402 120.996 199.402C131.023 199.402 140.434 196.776 148.586 192.178C152.115 182.468 159.882 174.798 169.65 171.39Z" fill="#0F6DB4"/>
<path d="M120.996 86.9102C119.051 86.9102 117.129 87.0122 115.234 87.206V89.8151C126.868 93.7107 136.8 101.31 143.646 111.206C153.641 118.304 160.169 129.964 160.169 143.156C160.169 156.34 153.65 167.993 143.667 175.093C135.66 186.677 123.419 195.111 109.18 198.155C112.99 198.97 116.943 199.402 120.996 199.402C131.023 199.402 140.434 196.776 148.586 192.178C152.115 182.468 159.882 174.798 169.65 171.39C174.476 163.092 177.242 153.448 177.242 143.156C177.242 112.092 152.06 86.9102 120.996 86.9102Z" fill="white" fill-opacity="0.1"/>
<path d="M88.4421 122.276C94.3451 113.104 104.006 106.571 115.238 104.887V53.2413H127.31C129.458 53.2413 130.801 50.9153 129.727 49.0545L104.257 4.93958C103.182 3.07873 100.497 3.07873 99.4224 4.93958L73.9524 49.0545C72.878 50.9153 74.2208 53.2413 76.3695 53.2413H88.4412V122.276H88.4421Z" fill="#0F6DB4"/>
<path d="M115.235 53.2412H110.195C107.585 53.2412 105.469 55.3573 105.469 57.9678V107.716C108.538 106.365 111.813 105.4 115.235 104.887V53.2412Z" fill="white" fill-opacity="0.1"/>
<path d="M129.719 49.0545L104.249 4.93958C103.175 3.07873 100.489 3.07873 99.4151 4.93958L96.9492 9.21098L119.953 49.055C121.027 50.9158 119.684 53.2417 117.536 53.2417H127.302C129.45 53.2413 130.794 50.9153 129.719 49.0545Z" fill="white" fill-opacity="0.1"/>
<path d="M148.668 170.848C163.963 155.553 163.963 130.754 148.668 115.458C133.372 100.163 108.573 100.163 93.2772 115.458C77.9816 130.754 77.9816 155.553 93.2772 170.848C108.573 186.144 133.372 186.144 148.668 170.848Z" fill="#FDC600"/>
<path d="M120.999 103.982C117.579 103.982 114.263 104.423 111.102 105.246C127.944 109.631 140.377 124.94 140.377 143.155C140.377 161.37 127.944 176.679 111.102 181.065C114.263 181.888 117.579 182.328 120.999 182.328C142.633 182.328 160.171 164.79 160.171 143.156C160.171 121.521 142.633 103.982 120.999 103.982Z" fill="white" fill-opacity="0.1"/>
<path d="M181.014 238.455C200.065 238.455 215.508 223.011 215.508 203.96C215.508 184.91 200.065 169.466 181.014 169.466C161.963 169.466 146.52 184.91 146.52 203.96C146.52 223.011 161.963 238.455 181.014 238.455Z" fill="#FDC600"/>
<path d="M181.016 169.466C177.564 169.466 174.234 169.979 171.09 170.923C185.301 175.186 195.659 188.361 195.659 203.96C195.659 219.56 185.301 232.734 171.09 236.998C174.234 237.941 177.564 238.455 181.016 238.455C200.067 238.455 215.51 223.011 215.51 203.96C215.51 184.909 200.067 169.466 181.016 169.466Z" fill="white" fill-opacity="0.3"/>
<path d="M196.671 165.888H211.57C216.131 165.888 219.842 162.177 219.842 157.617V128.695C219.842 124.134 216.131 120.423 211.57 120.423H196.671C196.155 120.423 195.704 120.094 195.55 119.605C194.193 115.307 192.45 111.1 190.368 107.101C190.129 106.643 190.214 106.09 190.579 105.725L201.117 95.1868C202.68 93.6242 203.54 91.5473 203.54 89.3376C203.54 87.1284 202.679 85.0516 201.117 83.4895L180.666 63.0376C177.441 59.8132 172.193 59.8127 168.968 63.0381L158.431 73.576C158.066 73.9409 157.513 74.0259 157.055 73.7877C153.054 71.7043 148.846 69.9606 144.551 68.605C144.06 68.4505 143.731 68 143.731 67.4839V52.5848C143.731 48.0242 140.021 44.3134 135.46 44.3134H131.083L107.327 3.16673C106.181 1.18252 104.13 -0.00195312 101.839 -0.00195312C99.5485 -0.00195312 97.4972 1.18252 96.3524 3.16626L86.3718 20.4527C85.3929 22.1481 85.9738 24.3162 87.6692 25.2951C89.3637 26.2725 91.5327 25.6935 92.5116 23.9976L101.839 7.8413L126.004 49.6955H115.237C113.28 49.6955 111.692 51.2822 111.692 53.2404V101.461C104.194 103.134 97.4334 106.783 91.9865 111.832V53.2409C91.9865 51.2827 90.3993 49.696 88.4416 49.696H77.6749L84.2401 38.3243C85.219 36.6289 84.6381 34.4608 82.9427 33.482C81.2473 32.5036 79.0792 33.0835 78.1003 34.7794L70.8824 47.2812C69.7371 49.2654 69.7376 51.6339 70.8824 53.6176C72.0276 55.6009 74.079 56.7853 76.3694 56.7853H84.8966V73.8066C84.4476 74.016 83.9206 73.9272 83.5675 73.5746L73.0297 63.0367C69.8043 59.8118 64.5568 59.8127 61.3319 63.0367L40.881 83.488C39.3189 85.0506 38.4582 87.1275 38.4582 89.3372C38.4582 91.5464 39.3189 93.6232 40.881 95.1858L51.4189 105.724C51.7838 106.089 51.8688 106.642 51.6301 107.1C49.5476 111.099 47.804 115.306 46.4479 119.604C46.2934 120.093 45.8429 120.422 45.3268 120.422H30.4277C25.8671 120.422 22.1562 124.133 22.1562 128.694V134.705C22.1562 136.663 23.7434 138.25 25.7012 138.25C27.6589 138.25 29.2461 136.663 29.2461 134.705V128.694C29.2461 128.043 29.7764 127.513 30.4277 127.513H45.3273C48.9521 127.513 52.1198 125.192 53.2098 121.737C54.442 117.832 56.0268 114.008 57.9193 110.374C59.5939 107.157 58.9965 103.274 56.4323 100.71L45.8945 90.1724C45.4336 89.7115 45.4336 88.9624 45.8945 88.502L66.3454 68.0506C66.8062 67.5898 67.5558 67.5898 68.0167 68.0506L78.5545 78.5885C80.2745 80.309 82.5891 81.1389 84.8966 80.9967V95.4916C70.0297 106.772 61.2081 124.451 61.2081 143.155C61.2081 176.124 88.0304 202.946 120.999 202.946C128.684 202.946 136.289 201.453 143.362 198.603C143.114 200.354 142.978 202.141 142.978 203.959C142.978 206.182 143.177 208.391 143.56 210.565C143.178 210.693 142.794 210.826 142.417 210.945C138.962 212.034 136.642 215.202 136.642 218.827V233.727C136.642 234.378 136.111 234.908 135.46 234.908H106.538C105.887 234.908 105.357 234.378 105.357 233.727V218.827C105.357 215.202 103.036 212.035 99.5816 210.945C95.6751 209.712 91.8518 208.127 88.2175 206.235C85.0011 204.561 81.1182 205.158 78.5545 207.722L68.0167 218.26C67.5558 218.721 66.8062 218.721 66.3454 218.26L45.8945 197.809C45.5934 197.508 45.5485 197.156 45.5485 196.973C45.5485 196.79 45.5934 196.439 45.8945 196.138L56.4323 185.6C58.9965 183.036 59.5939 179.152 57.9193 175.936C56.0268 172.302 54.442 168.479 53.2098 164.573C52.1198 161.119 48.9521 158.798 45.3273 158.798H30.4277C29.7764 158.798 29.2461 158.268 29.2461 157.616V151.248C29.2461 149.29 27.6589 147.703 25.7012 147.703C23.7434 147.703 22.1562 149.29 22.1562 151.248V157.617C22.1562 162.177 25.8671 165.888 30.4277 165.888H45.3273C45.8434 165.888 46.2939 166.217 46.4484 166.707C47.8049 171.005 49.5486 175.211 51.6306 179.211C51.8688 179.669 51.7838 180.222 51.4189 180.586L40.881 191.124C37.6561 194.35 37.6561 199.597 40.881 202.822L61.3319 223.273C62.894 224.835 64.9713 225.696 67.181 225.696C69.3902 225.696 71.4675 224.835 73.0297 223.273L83.5675 212.735C83.9329 212.371 84.485 212.285 84.9434 212.524C88.9421 214.606 93.1492 216.35 97.4485 217.706C97.9382 217.861 98.2667 218.311 98.2667 218.827V233.727C98.2667 238.287 101.977 241.998 106.538 241.998H135.46C140.021 241.998 143.731 238.287 143.731 233.727V218.827C143.731 218.311 144.06 217.861 144.55 217.706C144.843 217.614 145.142 217.509 145.437 217.411C146.184 219.385 147.095 221.299 148.166 223.132C149.155 224.822 151.326 225.389 153.016 224.402C154.706 223.413 155.275 221.242 154.286 219.552C151.526 214.832 150.067 209.44 150.067 203.959C150.067 186.893 163.951 173.009 181.016 173.009C198.082 173.009 211.966 186.893 211.966 203.959C211.966 221.024 198.082 234.908 181.016 234.908C175.208 234.908 169.541 233.283 164.629 230.21C162.97 229.172 160.782 229.674 159.744 231.334C158.705 232.994 159.209 235.182 160.869 236.22C166.91 240 173.877 241.998 181.017 241.998C201.992 241.998 219.056 224.934 219.056 203.959C219.056 187.895 209.042 174.134 194.932 168.567C195.147 167.945 195.355 167.324 195.55 166.707C195.704 166.217 196.155 165.888 196.671 165.888ZM120.999 107.527C140.644 107.527 156.627 123.51 156.627 143.155C156.627 162.801 140.644 178.783 120.999 178.783C101.354 178.783 85.3712 162.801 85.3712 143.155C85.3712 123.51 101.354 107.527 120.999 107.527ZM167.19 168.532C157.476 172.337 149.698 180.021 145.771 189.674C138.185 193.719 129.65 195.856 120.999 195.856C91.9397 195.856 68.2979 172.215 68.2979 143.155C68.2979 128.557 74.3999 114.671 84.8966 104.777V120.346C80.7094 126.95 78.2813 134.774 78.2813 143.155C78.2813 166.71 97.4443 185.873 120.999 185.873C144.554 185.873 163.717 166.71 163.717 143.155C163.717 119.6 144.553 100.438 120.999 100.438C120.256 100.438 119.517 100.457 118.782 100.495V90.5042C119.522 90.4734 120.262 90.4541 120.999 90.4541C150.058 90.4541 173.7 114.096 173.7 143.155C173.7 152.046 171.449 160.791 167.19 168.532ZM188.788 164.573C188.578 165.241 188.35 165.916 188.112 166.593C185.812 166.157 183.442 165.919 181.016 165.919C179.366 165.919 177.744 166.036 176.149 166.241C179.193 158.965 180.79 151.112 180.79 143.155C180.79 110.186 153.967 83.3637 120.999 83.3637C120.262 83.3637 119.522 83.3822 118.782 83.4101V56.7853H127.309C129.6 56.7853 131.651 55.6009 132.796 53.6176C133.201 52.9162 133.46 52.1661 133.578 51.4022H135.46C136.111 51.4022 136.641 51.9321 136.641 52.5839V67.483C136.641 71.1073 138.962 74.2746 142.416 75.3655C146.32 76.5972 150.144 78.182 153.78 80.0755C156.996 81.751 160.879 81.1531 163.443 78.5885L173.981 68.0506C174.442 67.5888 175.191 67.5888 175.652 68.0506L196.103 88.502C196.564 88.9628 196.564 89.712 196.103 90.1724L185.565 100.71C183.001 103.274 182.403 107.158 184.078 110.374C185.971 114.008 187.556 117.832 188.788 121.737C189.878 125.192 193.046 127.513 196.67 127.513H211.57C212.221 127.513 212.752 128.043 212.752 128.694V157.616C212.752 158.268 212.221 158.798 211.57 158.798H196.67C193.046 158.798 189.878 161.119 188.788 164.573Z" fill="#011932"/>
<path d="M129.26 156.502H108.564C106.607 156.502 105.02 158.088 105.02 160.047C105.02 162.005 106.607 163.592 108.564 163.592H117.457V166.803C117.457 168.761 119.045 170.348 121.002 170.348C122.96 170.348 124.547 168.761 124.547 166.803V163.592H129.26C133.52 163.592 136.985 160.126 136.985 155.866V147.335C136.985 143.076 133.519 139.61 129.26 139.61H112.745C112.394 139.61 112.11 139.325 112.11 138.976V130.444C112.11 130.094 112.395 129.809 112.745 129.809H133.44C135.398 129.809 136.985 128.223 136.985 126.264C136.985 124.306 135.398 122.72 133.44 122.72H124.547V119.508C124.547 117.55 122.96 115.963 121.002 115.963C119.045 115.963 117.457 117.55 117.457 119.508V122.72H112.745C108.485 122.72 105.02 126.185 105.02 130.444V138.976C105.02 143.235 108.486 146.7 112.745 146.7H129.26C129.61 146.7 129.895 146.985 129.895 147.335V155.866C129.895 156.217 129.61 156.502 129.26 156.502Z" fill="#011932"/>
<path d="M98.332 143.301V140.869C98.332 138.911 96.7449 137.324 94.7871 137.324C92.8294 137.324 91.2422 138.911 91.2422 140.869V143.301C91.2422 145.26 92.8294 146.846 94.7871 146.846C96.7449 146.846 98.332 145.259 98.332 143.301Z" fill="#011932"/>
<path d="M147.209 146.846C149.167 146.846 150.754 145.26 150.754 143.301V140.869C150.754 138.911 149.167 137.324 147.209 137.324C145.251 137.324 143.664 138.911 143.664 140.869V143.301C143.664 145.259 145.251 146.846 147.209 146.846Z" fill="#011932"/>
<path d="M191.478 185.835C189.782 184.856 187.614 185.437 186.635 187.132L169.253 217.24C168.274 218.935 168.855 221.103 170.55 222.082C171.109 222.404 171.718 222.558 172.319 222.558C173.545 222.558 174.736 221.922 175.393 220.785L192.775 190.677C193.754 188.982 193.174 186.814 191.478 185.835Z" fill="#011932"/>
<path d="M168.725 195.214C170.682 195.214 172.27 193.627 172.27 191.669C172.27 189.711 170.682 188.124 168.725 188.124C166.767 188.124 165.18 189.711 165.18 191.669C165.18 193.627 166.767 195.214 168.725 195.214Z" fill="#011932"/>
<path d="M193.307 219.797C195.264 219.797 196.852 218.21 196.852 216.252C196.852 214.294 195.264 212.707 193.307 212.707C191.349 212.707 189.762 214.294 189.762 216.252C189.762 218.21 191.349 219.797 193.307 219.797Z" fill="#011932"/>
</g>
<defs>
<clipPath id="clip0_1135_3135">
<rect width="242" height="242" fill="white"/>
</clipPath>
</defs>
</svg>
