<svg width="242" height="242" viewBox="0 0 242 242" fill="none" xmlns="http://www.w3.org/2000/svg">
<path d="M85.0943 156.209C50.1093 121.225 50.1093 64.3003 85.0938 29.3153C120.079 -5.67013 177.003 -5.67013 211.988 29.3148C246.973 64.2998 246.973 121.224 211.988 156.209C177.003 191.194 120.079 191.194 85.0943 156.209Z" fill="#54A0FF"/>
<path d="M94.5372 156.209C59.5523 121.224 59.5523 64.3001 94.5372 29.3151C110.831 13.0211 131.884 4.31983 153.263 3.20335C128.739 1.92245 103.786 10.6237 85.0942 29.3151C50.1092 64.3001 50.1092 121.224 85.0942 156.209C103.785 174.9 128.738 183.601 153.263 182.321C131.884 181.204 110.831 172.503 94.5372 156.209Z" fill="#338DEF"/>
<path d="M148.545 166.801C107.709 166.801 74.6055 133.697 74.6055 92.8621C74.6055 52.0269 107.709 18.9229 148.545 18.9229C189.38 18.9229 222.484 52.0264 222.484 92.8621C222.484 133.698 189.38 166.801 148.545 166.801Z" fill="#ACD6FC"/>
<path d="M84.0485 92.8621C84.0485 53.6135 114.632 21.513 153.266 19.0774C151.705 18.9791 150.131 18.9229 148.545 18.9229C107.709 18.9229 74.6055 52.0264 74.6055 92.8621C74.6055 135.354 110.416 169.348 153.266 166.647C114.631 164.211 84.0485 132.111 84.0485 92.8621Z" fill="#8AC2FF"/>
<path d="M13.7523 235.39L6.16236 227.8C2.19067 223.828 2.19067 217.328 6.16236 213.356L58.2526 161.266C60.4577 159.061 64.066 159.061 66.2711 161.266L79.8748 174.87C82.0799 177.075 82.0799 180.683 79.8748 182.888L27.373 235.39C23.6272 239.135 17.4982 239.135 13.7523 235.39Z" fill="#0F6DB4"/>
<path d="M11.7764 221.093L65.9867 166.883C67.1528 165.717 68.711 165.174 70.247 165.242L66.2678 161.263C64.0641 159.059 60.4586 159.059 58.255 161.263L6.15668 213.361C2.18736 217.331 2.18736 223.825 6.15668 227.795L9.10167 230.74C8.28805 227.387 9.17207 223.697 11.7764 221.093Z" fill="#0F6DB4"/>
<path d="M67.6687 195.093L46.0469 173.472L36.0081 183.51L57.6299 205.132L67.6687 195.093Z" fill="#0F6DB4"/>
<path d="M42.6842 190.189L52.7227 180.15L46.0468 173.475L36.0084 183.513L42.6842 190.189Z" fill="#0F6DB4"/>
<path d="M120.248 161.469V84.1133H96.6997C94.5938 84.1133 92.8867 85.8204 92.8867 87.9262V141.856C100.319 150.337 109.666 157.093 120.248 161.469Z" fill="#0F6DB4"/>
<path d="M147.612 167.04V57.2412H133.931C133.931 57.2412 128.11 57.2412 124.062 57.2412C121.956 57.2412 120.25 58.9483 120.25 61.0541V161.468C128.697 164.962 137.929 166.932 147.612 167.04Z" fill="#0F6DB4"/>
<path d="M174.971 162.141V60.6723V30.3691H161.29H151.422C149.316 30.3691 147.609 32.0762 147.609 34.1825V60.6728V167.041C157.176 167.145 166.327 165.469 174.971 162.141Z" fill="#0F6DB4"/>
<path d="M202.335 143.71V7.20703C202.335 5.15882 200.674 3.49805 198.626 3.49805H188.653C188.653 3.49805 182.832 3.49805 178.785 3.49805C176.679 3.49805 174.973 5.20513 174.973 7.31145V162.142C185.455 158.107 194.787 151.757 202.335 143.71Z" fill="#0F6DB4"/>
<path d="M102.336 87.4547C102.336 86.0155 103.134 84.763 104.312 84.1143H96.6996C94.5938 84.1143 92.8867 85.8213 92.8867 87.9272V141.857C95.7622 145.138 98.9274 148.157 102.336 150.884V87.4547Z" fill="white" fill-opacity="0.2"/>
<path d="M129.7 60.1097C129.7 58.9648 130.207 57.9405 131.005 57.2412C128.977 57.2412 126.26 57.2412 124.062 57.2412C121.956 57.2412 120.25 58.9483 120.25 61.0546V161.469C123.302 162.731 126.458 163.791 129.7 164.64V60.1097H129.7Z" fill="white" fill-opacity="0.2"/>
<path d="M157.059 60.6728V33.2376C157.059 32.0928 157.566 31.0684 158.365 30.3691H151.422C149.316 30.3691 147.609 32.0762 147.609 34.1825V60.6728V167.041C150.782 167.076 153.702 166.949 157.059 166.558V60.6728Z" fill="white" fill-opacity="0.2"/>
<path d="M184.422 6.36649C184.422 5.22166 184.929 4.19732 185.728 3.49805C183.7 3.49805 180.982 3.49805 178.785 3.49805C176.679 3.49805 174.973 5.20513 174.973 7.31098V162.142C178.241 160.883 181.397 159.4 184.422 157.711V6.36649Z" fill="white" fill-opacity="0.2"/>
<path d="M206.186 19.8042V7.2787C206.186 3.27961 202.932 0.0260972 198.933 0.0260972H179.092C176.578 0.0260972 174.357 1.29566 173.03 3.22575C140.794 -5.441 106.529 3.61507 82.8678 27.2761C47.3579 62.7859 46.5154 119.934 80.3825 156.461L73.3198 163.338L69.0798 159.098C65.488 155.506 59.6415 155.506 56.0497 159.098C43.9333 171.214 14.8293 200.318 4.02272 211.125C-1.34091 216.488 -1.34091 225.216 4.02272 230.579L11.5909 238.147C16.7282 243.284 25.086 243.284 30.2238 238.147C31.3417 237.029 77.8651 190.506 82.6613 185.71C86.2531 182.117 86.2526 176.272 82.6613 172.68L78.3319 168.351L85.3922 161.477C100.945 175.901 121.007 184.606 142.272 186.077C142.355 186.083 142.437 186.086 142.52 186.086C144.365 186.086 145.922 184.656 146.051 182.787C146.186 180.835 144.713 179.142 142.761 179.007C98.5372 175.947 62.7055 139.365 62.7055 93.1652C62.7055 36.1564 116.918 -4.90095 171.737 10.218V19.3294C121.847 3.81399 71.3491 41.366 71.3491 93.2644C71.3491 135.813 105.88 170.672 148.757 170.672C185.231 170.672 204.483 146.58 205.222 146.211C205.222 146.211 205.234 146.199 205.232 146.199C205.259 146.171 205.286 146.141 205.312 146.111C218.761 131.725 226.165 112.963 226.165 93.2644C226.165 73.9965 219.081 55.6241 206.186 41.3678V29.0261C224.266 45.2063 234.809 68.1671 234.809 93.1647C234.809 137.142 202 173.678 158.649 178.647C156.705 178.87 155.31 180.627 155.532 182.572C155.755 184.516 157.51 185.912 159.457 185.689C206.356 180.312 241.895 140.789 241.896 93.1652C241.895 64.0768 228.697 37.4453 206.186 19.8042ZM25.2117 233.136C22.8384 235.509 18.9763 235.509 16.6026 233.136L9.03434 225.568C6.4338 222.967 6.4338 218.736 9.03434 216.136L36.3353 188.835L52.9237 205.423L25.2117 233.136ZM57.9353 200.412L41.3469 183.824L46.3642 178.806L62.9526 195.395L57.9353 200.412ZM77.6492 180.698L67.9642 190.383L51.3759 173.795L61.0613 164.109C61.8829 163.287 63.2465 163.288 64.0677 164.109L77.6497 177.691C78.4713 178.514 78.4713 179.876 77.6492 180.698ZM117.014 156.001C109.342 152.104 102.476 146.842 96.7389 140.535V87.9981C96.7389 87.8493 96.8599 87.7283 97.0082 87.7283H117.014V156.001ZM144.375 163.44C137.43 163.015 130.647 161.575 124.101 159.119C124.101 158.328 124.101 62.4065 124.101 61.1261C124.101 60.9778 124.221 60.8568 124.369 60.8568H144.375V163.44ZM171.737 159.736C165.056 162.048 158.178 163.289 151.462 163.532V34.2546C151.462 34.1063 151.583 33.9853 151.732 33.9853H171.737V159.736ZM171.737 26.8976H151.732C147.675 26.8976 144.375 30.1979 144.375 34.2542V53.7691H124.369C120.313 53.7691 117.014 57.0694 117.014 61.1256V80.6406H97.0082C92.9515 80.6406 89.6517 83.9409 89.6517 87.9976V131.323C59.5578 84.7502 93.1887 22.9439 148.757 22.9439C156.642 22.9439 164.36 24.2408 171.737 26.7932V26.8976ZM219.077 93.2644C219.077 107.939 214.551 122.041 206.186 133.848V101.222C206.186 99.2654 204.6 97.6788 202.642 97.6788C200.685 97.6788 199.098 99.2654 199.098 101.222V142.352C193.232 148.373 186.291 153.294 178.824 156.839C178.824 148.772 178.824 14.1387 178.824 7.56125V7.38312C178.824 7.23476 178.945 7.11381 179.092 7.11381H198.933C199.024 7.11381 199.098 7.18799 199.098 7.27918C199.098 12.7208 199.098 81.6767 199.098 84.686C199.098 86.643 200.685 88.2296 202.642 88.2296C204.6 88.2296 206.186 86.643 206.186 84.686V52.681C214.551 64.4878 219.077 78.5895 219.077 93.2644Z" fill="#011932"/>
</svg>
