<svg width="242" height="242" viewBox="0 0 242 242" fill="none" xmlns="http://www.w3.org/2000/svg">
<g clip-path="url(#clip0_1135_3213)">
<path d="M153.871 225.083H88.125L104.517 168.29H137.479L153.871 225.083Z" fill="#0F6DB4"/>
<path d="M137.487 168.29H118.566L134.959 225.083H153.879L137.487 168.29Z" fill="white" fill-opacity="0.1"/>
<path d="M120.998 192.787C173.261 192.787 215.629 150.42 215.629 98.1564C215.629 45.8931 173.261 3.52539 120.998 3.52539C68.7349 3.52539 26.3672 45.8931 26.3672 98.1564C26.3672 150.42 68.7349 192.787 120.998 192.787Z" fill="#0F6DB4"/>
<path d="M121 178.211C165.213 178.211 201.055 142.369 201.055 98.1563C201.055 53.9433 165.213 18.1016 121 18.1016C76.787 18.1016 40.9453 53.9433 40.9453 98.1563C40.9453 142.369 76.787 178.211 121 178.211Z" fill="#F1FAFF"/>
<path d="M120.998 18.1016C117.844 18.1016 114.734 18.2902 111.676 18.6446C151.496 23.2634 182.408 57.0971 182.408 98.1563C182.408 139.215 151.496 173.049 111.676 177.668C114.735 178.023 117.844 178.211 120.998 178.211C165.211 178.211 201.053 142.369 201.053 98.1563C201.053 53.9436 165.211 18.1016 120.998 18.1016Z" fill="#DCF5FF"/>
<path d="M149.126 150.236C144.516 150.236 140.33 148.932 136.686 146.36C133.133 143.853 133.683 140.308 134.321 136.203C136.55 121.87 133.249 115.013 125.682 107.437C122.255 104.005 120.951 102.49 123.12 99.4148C132.25 86.4801 159.528 87.7346 171.897 96.4631C183.926 104.951 183.708 123.005 174.679 135.799C168.49 144.57 158.46 150.237 149.127 150.237C149.126 150.236 149.126 150.236 149.126 150.236Z" fill="#FDC600"/>
<path d="M171.89 96.463C163.941 90.853 149.838 88.339 138.348 90.6862C144.094 91.752 149.393 93.7443 153.245 96.463C165.273 104.951 165.056 123.005 156.027 135.799C151.959 141.564 146.23 145.988 140.131 148.344C142.894 149.6 145.902 150.237 149.118 150.237H149.119C158.453 150.237 168.482 144.569 174.672 135.799C183.701 123.005 183.919 104.951 171.89 96.463Z" fill="white" fill-opacity="0.1"/>
<path d="M64.082 127.005C57.729 113.188 60.3423 95.1147 73.996 88.8369C77.9819 87.004 80.7479 89.2822 83.969 91.8846C95.5609 101.247 103.217 101.484 113.19 98.8345C115.352 98.2607 116.726 97.9497 117.798 97.9497C119.993 97.9497 120.816 99.3393 121.416 100.641C128.248 115.5 112.626 138.292 99.5104 144.323C86.4292 150.338 70.7521 141.512 64.082 127.005Z" fill="#FDC600"/>
<path d="M121.41 100.642C120.811 99.3398 119.989 97.9502 117.793 97.9502C116.721 97.9502 115.347 98.2612 113.185 98.835C111.878 99.1824 110.612 99.4783 109.37 99.7123C107.185 112.633 95.9861 126.498 86.1861 131.004C79.4385 134.108 72.0017 133.254 65.4648 129.715C72.7423 142.579 87.2604 149.955 99.5051 144.323C112.62 138.292 128.243 115.5 121.41 100.642Z" fill="white" fill-opacity="0.1"/>
<path d="M121.118 97.5516C116.764 97.5516 108.182 95.7598 99.6235 83.76C94.1312 76.0571 90.582 66.4952 90.582 59.4007C90.582 45.6412 104.28 34.4473 121.118 34.4473C135.803 34.4473 151.653 43.9878 151.653 59.4007C151.653 63.7501 148.439 65.3439 144.718 67.1891C131.714 73.6361 128.021 80.2944 126.196 90.8342C125.367 95.6123 124.881 97.5516 121.118 97.5516Z" fill="#FDC600"/>
<path d="M121.118 34.4473C118.151 34.4473 115.285 34.8013 112.57 35.4493C122.723 37.9081 131.513 44.7446 132.923 55.48C133.489 59.792 130.51 61.7909 127.06 64.105C115.006 72.1908 112.211 79.273 111.774 89.9607C111.688 92.0612 111.595 93.6229 111.215 94.7596C115.286 97.043 118.801 97.5511 121.118 97.5511C124.882 97.5511 125.368 95.6118 126.196 90.8333C128.021 80.2935 131.713 73.6357 144.718 67.1886C148.44 65.3434 151.654 63.7496 151.654 59.4002C151.654 43.9874 135.804 34.4473 121.118 34.4473Z" fill="white" fill-opacity="0.1"/>
<path d="M120.999 113.498C129.597 113.498 136.567 106.528 136.567 97.9292C136.567 89.3307 129.597 82.3604 120.999 82.3604C112.4 82.3604 105.43 89.3307 105.43 97.9292C105.43 106.528 112.4 113.498 120.999 113.498Z" fill="#0F6DB4"/>
<path d="M161.447 212.42H80.5506C69.1898 212.42 58.8897 219.097 54.252 229.467C52.3599 233.698 55.4558 238.474 60.0902 238.474H181.907C186.542 238.474 189.638 233.698 187.746 229.467C183.108 219.097 172.807 212.42 161.447 212.42Z" fill="#0F6DB4"/>
<path d="M187.744 229.467C183.106 219.096 172.806 212.42 161.445 212.42H142.801C154.162 212.42 164.462 219.097 169.1 229.467C170.992 233.698 167.896 238.474 163.262 238.474H181.906C186.541 238.474 189.636 233.698 187.744 229.467Z" fill="white" fill-opacity="0.1"/>
<path d="M153.873 221.557H88.1271C86.1798 221.557 84.6016 223.135 84.6016 225.082C84.6016 227.029 86.1798 228.608 88.1271 228.608H153.873C155.82 228.608 157.399 227.029 157.399 225.082C157.399 223.135 155.82 221.557 153.873 221.557Z" fill="#011932"/>
<path d="M134.651 149.241C148.591 159.079 167.728 151.762 177.558 137.832C187.547 123.677 187.792 103.366 173.928 93.5824C164.744 87.1018 149.32 84.6156 136.913 87.392C135.669 85.5193 134.104 83.8778 132.296 82.5468C134.362 78.2953 138.01 74.4483 146.281 70.3476C150.245 68.3827 155.177 65.9372 155.177 59.4008C155.177 41.81 137.496 30.9219 121.115 30.9219C102.334 30.9219 87.0544 43.6973 87.0544 59.4008C87.0544 67.1812 90.8607 77.5466 96.7514 85.8072C98.6113 88.4153 100.587 90.7186 102.642 92.6872C102.275 93.97 102.039 95.3062 101.949 96.6825C96.8955 96.2524 92.0985 93.9227 86.1795 89.1418L86.0977 89.0756C82.6927 86.3252 78.4563 82.9022 72.5178 85.6337C56.9334 92.8001 53.7553 112.997 60.8739 128.478C66.3615 140.413 78.0748 149.768 90.7179 149.767C94.2572 149.767 97.725 149.022 100.978 147.526C111.719 142.587 122.308 129.037 125.552 116.47C126.398 116.262 127.22 115.997 128.018 115.68C131.014 120.233 132.385 125.692 130.835 135.661C130.155 140.032 129.31 145.472 134.651 149.241ZM120.999 109.972C114.359 109.972 108.956 104.569 108.956 97.9285C108.956 91.2876 114.359 85.8852 120.999 85.8852C127.64 85.8852 133.043 91.2876 133.043 97.9285C133.043 104.569 127.64 109.972 120.999 109.972ZM102.493 81.7135C97.4764 74.679 94.1059 65.7117 94.1059 59.4008C94.1059 47.5858 106.222 37.9734 121.115 37.9734C137.799 37.9734 148.126 49.096 148.126 59.4008C148.126 61.3085 147.126 62.059 143.15 64.0305C134.419 68.3591 129.091 73.1074 125.957 79.4911C124.375 79.0652 122.714 78.8341 120.999 78.8341C114.941 78.8341 109.538 81.6729 106.037 86.0856C104.823 84.7754 103.637 83.3182 102.493 81.7135ZM98.0327 141.12C86.2863 146.523 72.8118 137.562 67.2813 125.532C61.7852 113.581 63.6092 97.4912 75.4644 92.0401C77.2363 91.2252 78.2871 91.8302 81.6665 94.5603L81.7493 94.627C89.3255 100.746 95.7976 103.593 102.833 103.8C105.028 110.577 110.914 115.708 118.111 116.804C114.6 127.462 105.347 137.756 98.0327 141.12ZM140.094 97.9285C140.094 96.5913 139.955 95.2863 139.692 94.0262C149.877 92.1545 162.706 94.2933 169.862 99.3436C180.476 106.834 179.448 122.924 171.797 133.766C164.163 144.583 149.302 150.95 138.716 143.48C137.157 142.379 137.121 141.13 137.803 136.744C139.449 126.156 138.344 118.687 133.972 111.922C137.734 108.433 140.094 103.452 140.094 97.9285Z" fill="#011932"/>
<path d="M204.578 98.1564C204.578 78.7222 197.76 59.7924 185.38 44.855C184.137 43.3553 181.914 43.1482 180.415 44.3904C178.916 45.633 178.708 47.8554 179.951 49.3547C191.285 63.0301 197.527 80.3614 197.527 98.1564C197.527 140.355 163.196 174.686 120.998 174.686C103.223 174.686 85.9068 168.456 72.2385 157.144C70.7383 155.903 68.5163 156.112 67.2742 157.612C66.033 159.113 66.2429 161.335 67.7426 162.576C82.6729 174.932 101.586 181.737 120.998 181.737C167.084 181.737 204.578 144.243 204.578 98.1564Z" fill="#011932"/>
<path d="M44.4691 98.1565C44.4691 55.9582 78.8 21.6273 120.998 21.6273C138.516 21.6273 155 27.3866 168.666 38.2818C170.189 39.496 172.408 39.245 173.621 37.7231C174.835 36.2007 174.585 33.9825 173.062 32.7687C158.133 20.8668 140.13 14.5762 120.998 14.5762C74.9119 14.5762 37.418 52.0701 37.418 98.1565C37.418 117.288 43.7085 135.292 55.6105 150.22C56.3063 151.093 57.3329 151.548 58.3694 151.548C59.1398 151.548 59.9155 151.297 60.5649 150.779C62.0878 149.565 62.3378 147.347 61.124 145.825C50.2284 132.158 44.4691 115.675 44.4691 98.1565Z" fill="#011932"/>
<path d="M161.444 208.895H152.867L148.133 192.494C189.1 180.692 219.152 142.869 219.152 98.1565C219.153 44.0327 175.12 0 120.996 0C66.8725 0 22.8398 44.0327 22.8398 98.1565C22.8398 142.87 52.8932 180.693 93.8598 192.495L89.1261 208.895H80.5483C67.8159 208.895 56.2297 216.406 51.031 228.029C48.0948 234.593 52.905 242 60.088 242H181.905C189.097 242 193.895 234.584 190.962 228.029C185.764 216.405 174.177 208.895 161.444 208.895ZM29.8909 98.1565C29.8909 47.9212 70.7606 7.05156 120.996 7.05156C171.231 7.05156 212.101 47.9212 212.101 98.1565C212.101 148.392 171.232 189.261 120.996 189.261C70.761 189.261 29.8909 148.392 29.8909 98.1565ZM100.707 194.199C107.256 195.581 114.042 196.313 120.996 196.313C127.951 196.313 134.737 195.58 141.286 194.198L145.528 208.894H96.4655L100.707 194.199ZM181.905 234.949H60.088C58.0078 234.949 56.6192 232.805 57.4681 230.907C61.5329 221.819 70.5928 215.946 80.5483 215.946H161.444C171.4 215.946 180.46 221.819 184.525 230.907C185.374 232.806 183.984 234.949 181.905 234.949Z" fill="#011932"/>
<g clip-path="url(#clip1_1135_3213)">
<path d="M118.638 2.79297C63.6492 2.79297 19.0742 44.2554 19.0742 95.404C19.0742 146.553 63.6492 188.015 118.638 188.015C173.626 188.015 218.201 146.553 218.201 95.404C218.201 44.2554 173.626 2.79297 118.638 2.79297ZM55.4532 131.895C54.4531 130.397 53.5095 128.858 52.634 127.285C47.6223 118.339 44.6545 108.265 44.3013 97.5703C43.004 58.4348 77.2426 25.8699 119.332 26.2287C131.44 26.3296 142.853 29.1274 152.924 33.9981C154.615 34.8162 156.265 35.6939 157.876 36.6279C158.607 37.05 158.727 37.9951 158.121 38.5592L57.5334 132.123C56.927 132.687 55.9109 132.575 55.4532 131.895ZM118.638 164.583C106.273 164.583 94.6153 161.774 84.3629 156.81C82.6724 155.992 81.0139 155.114 79.4034 154.184C78.6685 153.758 78.5479 152.813 79.1543 152.249L179.75 58.6777C180.356 58.1137 181.372 58.2258 181.83 58.9094C182.83 60.4074 183.774 61.9502 184.653 63.5227C189.99 73.0703 193.01 83.9028 193.01 95.404C193.01 133.609 159.723 164.583 118.638 164.583Z" fill="#E94444"/>
<path d="M175.578 19.4297C197.452 36.4144 211.367 61.968 211.367 90.5474C211.367 141.696 166.791 183.158 111.804 183.158C90.6284 183.158 70.9909 177.006 54.8555 166.521C72.1276 179.943 94.3668 188.015 118.63 188.015C173.618 188.015 218.194 146.552 218.194 95.4036C218.194 63.9555 201.344 36.1681 175.578 19.4297Z" fill="#D83131"/>
<path d="M191.158 27.9435C171.786 9.92386 146.029 0 118.633 0C91.2366 0 65.4796 9.92386 46.1076 27.9435C26.7353 45.9628 16.0664 69.9211 16.0664 95.4043C16.0664 120.888 26.7353 144.846 46.1072 162.865C65.4796 180.885 91.2362 190.809 118.632 190.809C129.066 190.809 139.36 189.356 149.229 186.49C150.812 186.031 151.696 184.464 151.201 182.991C150.707 181.517 149.021 180.695 147.439 181.156C138.151 183.853 128.458 185.22 118.632 185.22C92.8406 185.22 68.5928 175.878 50.3551 158.914C32.1181 141.95 22.0741 119.395 22.0741 95.4043C22.0741 71.4139 32.1181 48.8585 50.3555 31.8947C68.5932 14.9305 92.841 5.58818 118.633 5.58818C144.424 5.58818 168.672 14.9305 186.91 31.8947C205.148 48.8585 215.192 71.4136 215.192 95.4043C215.192 112.706 209.892 129.502 199.866 143.979C190.099 158.081 176.351 169.339 160.107 176.537C158.61 177.201 157.974 178.868 158.687 180.261C159.401 181.654 161.193 182.245 162.691 181.582C179.943 173.937 194.544 161.981 204.917 147.005C215.569 131.625 221.199 113.782 221.199 95.4043C221.199 69.9211 210.53 45.9628 191.158 27.9435Z" fill="#011932"/>
<path d="M161.474 37.2263C161.322 35.9935 160.585 34.9102 159.452 34.2537C157.784 33.2881 156.052 32.3683 154.299 31.5185C124.359 17.0381 86.9696 22.7209 63.4015 45.1227C48.4888 59.2973 40.6352 77.954 41.2876 97.6564C41.6481 108.546 44.5658 118.949 49.9563 128.571C50.8587 130.19 51.8471 131.805 52.8937 133.369C53.599 134.424 54.7637 135.11 56.0889 135.251C56.2568 135.269 56.4246 135.278 56.5908 135.278C57.7343 135.278 58.8269 134.86 59.6475 134.097L160.233 40.5356C161.173 39.6609 161.626 38.4549 161.474 37.2263ZM56.91 128.74C56.3433 127.834 55.8006 126.916 55.2871 125.994C50.3148 117.119 47.6253 107.527 47.2929 97.4847C46.6913 79.316 53.937 62.1086 67.6954 49.0311C74.4949 42.5682 82.6621 37.3745 91.6597 33.9356C96.185 32.2059 100.905 30.9202 105.718 30.1013C121.181 27.4704 137.493 29.6711 151.525 36.4752C152.517 36.9566 153.504 37.4628 154.474 37.9889L56.91 128.74Z" fill="#011932"/>
<path d="M77.8114 156.555C79.4739 157.516 81.2101 158.436 82.9712 159.288C93.9 164.58 106.232 167.377 118.633 167.377C161.298 167.377 196.009 135.09 196.009 95.4041C196.009 83.7162 193.083 72.5559 187.313 62.233C186.396 60.5938 185.407 58.9789 184.374 57.4317C183.668 56.3774 182.504 55.6912 181.179 55.5492C179.856 55.405 178.561 55.8279 177.619 56.7034L142.114 89.7287C140.941 90.8203 140.941 92.5891 142.114 93.6803C143.288 94.7708 145.189 94.7715 146.363 93.6803L180.356 62.0606C180.919 62.9625 181.464 63.8827 181.983 64.8114C187.303 74.3296 190.001 84.6223 190.001 95.4037C190.001 132.009 157.985 161.789 118.633 161.789C107.193 161.789 95.8208 159.21 85.7448 154.331C84.7459 153.847 83.7566 153.341 82.7866 152.817L136.366 102.98C137.539 101.888 137.539 100.119 136.366 99.0282C135.192 97.9374 133.29 97.9374 132.117 99.0282L77.0268 150.272C76.0864 151.148 75.6346 152.354 75.7868 153.583C75.939 154.816 76.6768 155.899 77.8114 156.555Z" fill="#011932"/>
</g>
</g>
<defs>
<clipPath id="clip0_1135_3213">
<rect width="242" height="242" fill="white"/>
</clipPath>
<clipPath id="clip1_1135_3213">
<rect width="205.133" height="190.809" fill="white" transform="translate(16.0703)"/>
</clipPath>
</defs>
</svg>
