<svg width="242" height="242" viewBox="0 0 242 242" fill="none" xmlns="http://www.w3.org/2000/svg">
<g clip-path="url(#clip0_1135_3103)">
<path d="M239.343 120.607C239.342 137.615 225.555 151.403 208.546 151.402V138.46L208.543 89.8096C218.14 89.8077 226.711 94.198 232.358 101.078C236.726 106.389 239.342 113.195 239.343 120.607Z" fill="#0F6DB4"/>
<path d="M239.34 120.606C239.338 137.615 225.552 151.403 208.543 151.402V138.46C223.923 133.146 232.905 117.408 232.355 101.078C236.723 106.389 239.338 113.194 239.34 120.606Z" fill="white" fill-opacity="0.1"/>
<path d="M213.415 72.12V169.096C213.415 174.341 209.163 178.598 203.913 178.598H13.0683C7.81849 178.598 3.56641 174.341 3.56641 169.096V72.12C3.56641 66.875 7.81849 62.6182 13.0683 62.6182H203.913C209.163 62.6182 213.415 66.875 213.415 72.12Z" fill="#E8E6ED"/>
<path d="M213.412 72.12V169.096C213.412 174.341 209.16 178.598 203.911 178.598H147.18C174.445 145.284 180.327 93.8793 181.163 62.6182H203.911C209.16 62.6182 213.412 66.875 213.412 72.12Z" fill="#D1D0D8"/>
<path d="M199.164 159.594C199.159 162.217 197.031 164.345 194.408 164.345H22.5673C19.9401 164.34 17.8164 162.217 17.8164 159.59V81.622C17.8164 78.9995 19.9448 76.8711 22.5673 76.8711H194.413C197.036 76.8711 199.164 78.9948 199.159 81.6268L199.164 159.594Z" fill="#0F6DB4"/>
<path opacity="0.2" d="M199.169 159.594C199.164 162.217 197.036 164.345 194.413 164.345H157.023C172.868 137.146 178.602 103.115 180.469 76.8711H194.418C197.041 76.8711 199.169 78.9948 199.164 81.6268L199.169 159.594Z" fill="white"/>
<path d="M160.208 118.173L87.1385 205.557C85.5137 207.5 82.3781 205.889 83.0147 203.438L91.3716 171.302L101.619 131.898L60.386 131.623C56.3667 131.599 54.1956 126.91 56.7706 123.826L129.84 36.4425C131.469 34.4994 134.6 36.1099 133.964 38.5614L115.364 110.101L140.971 110.272L156.592 110.376C160.612 110.4 162.783 115.089 160.208 118.173Z" fill="#0F6DB4"/>
<path d="M160.207 118.171L87.1376 205.555C85.5127 207.498 82.3771 205.888 83.0138 203.436L91.3706 171.301C121.886 149.28 135.255 125.108 140.97 110.271L156.591 110.375C160.611 110.399 162.782 115.088 160.207 118.171Z" fill="#0F6DB4"/>
<path d="M239.291 124.565C237.383 124.091 235.449 125.257 234.977 127.168C232.7 136.378 225.824 143.641 216.977 146.512V94.7051C225.374 97.4221 231.976 104.061 234.596 112.66C235.064 114.197 236.476 115.186 238.003 115.186C238.347 115.186 238.697 115.136 239.043 115.031C240.925 114.457 241.986 112.466 241.413 110.584C237.882 98.9928 228.614 90.224 216.976 87.2951V72.122C216.976 64.9182 211.115 59.057 203.911 59.057H132.314L137.41 39.4594C138.114 36.7514 136.868 33.9654 134.38 32.6846C131.891 31.4047 128.902 32.0094 127.106 34.1554L106.284 59.057H13.0651C5.86075 59.057 0 64.9182 0 72.122V100.933C0 102.901 1.59536 104.496 3.5632 104.496C5.53103 104.496 7.12639 102.901 7.12639 100.933V72.122C7.12639 68.8472 9.79024 66.1834 13.0651 66.1834H100.325L94.3663 73.3098L22.5669 73.3102C17.9827 73.3102 14.2528 77.0402 14.2528 81.6244V159.593C14.2528 164.177 17.9827 167.907 22.5669 167.907L88.5711 167.907L86.7182 175.034H13.0651C9.79024 175.034 7.12639 172.37 7.12639 169.095V117.335C7.12639 115.366 5.53103 113.772 3.5632 113.772C1.59536 113.772 0 115.366 0 117.335V169.095C0 176.299 5.86075 182.16 13.0651 182.16H84.8649L79.5662 202.538C78.8621 205.246 80.1078 208.032 82.5954 209.313C83.4681 209.763 84.4031 209.98 85.3267 209.98C87.0351 209.98 88.7046 209.236 89.8695 207.843L111.345 182.16H166.026C167.995 182.16 169.59 180.565 169.59 178.597C169.59 176.629 167.995 175.034 166.026 175.034H117.304L123.263 167.907H194.41C198.994 167.907 202.724 164.177 202.724 159.593V81.6239C202.724 77.0397 198.994 73.3098 194.41 73.3098H128.609L130.461 66.1834H203.912C207.187 66.1834 209.85 68.8472 209.85 72.122V169.095C209.85 172.37 207.187 175.034 203.912 175.034H182.428C180.46 175.034 178.865 176.629 178.865 178.597C178.865 180.565 180.46 182.16 182.428 182.16H203.912C211.116 182.16 216.977 176.299 216.977 169.095V153.925C229.195 150.845 238.835 141.254 241.895 128.879C242.367 126.968 241.201 125.037 239.291 124.565ZM22.5669 160.781C21.9122 160.781 21.3792 160.248 21.3792 159.593V81.6244C21.3792 80.9692 21.9122 80.4366 22.5669 80.4366L88.4077 80.4361L54.038 121.54C51.9519 124.035 51.5048 127.418 52.8721 130.368C54.2395 133.319 57.1085 135.166 60.3606 135.187L97.0159 135.43L90.4244 160.781H22.5669ZM87.7938 199.216L105.064 132.793C105.341 131.729 105.111 130.597 104.442 129.726C103.772 128.854 102.738 128.34 101.639 128.333L60.4076 128.06C59.7524 128.056 59.4565 127.627 59.3382 127.372C59.2199 127.117 59.0845 126.613 59.5049 126.111L129.183 42.7822L111.911 109.205C111.635 110.269 111.864 111.4 112.534 112.272C113.204 113.143 114.238 113.657 115.336 113.665L156.568 113.938C157.223 113.942 157.519 114.371 157.638 114.626C157.756 114.881 157.891 115.384 157.471 115.887L87.7938 199.216ZM194.41 80.4361C195.065 80.4361 195.598 80.9687 195.598 81.6239V159.593C195.598 160.248 195.065 160.781 194.41 160.781H129.222L162.939 120.458C165.025 117.963 165.472 114.581 164.104 111.63C162.737 108.679 159.867 106.832 156.615 106.811L119.96 106.568L126.755 80.4357L194.41 80.4361Z" fill="#011932"/>
</g>
<defs>
<clipPath id="clip0_1135_3103">
<rect width="242" height="242" fill="white"/>
</clipPath>
</defs>
</svg>
