<svg width="242" height="242" viewBox="0 0 242 242" fill="none" xmlns="http://www.w3.org/2000/svg">
<g clip-path="url(#clip0_1135_3173)">
<path d="M3.82031 199.703C3.82031 195.57 4.92491 191.512 7.01925 187.95L99.5644 30.5418C103.73 23.4562 111.336 19.1045 119.556 19.1045H123.462C131.679 19.1045 139.284 23.4529 143.451 30.5357L234.976 186.098C237.073 189.663 238.179 193.723 238.179 197.858V199.704C238.179 212.512 227.796 222.894 214.988 222.894H27.0117C14.2036 222.894 3.82031 212.511 3.82031 199.703Z" fill="#0F6DB4"/>
<path d="M47.3907 222.894H27.0117C14.2036 222.894 3.82031 212.511 3.82031 199.703C3.82031 195.57 4.92491 191.512 7.01925 187.95L99.5644 30.5418C103.73 23.4562 111.336 19.1045 119.556 19.1045H123.462C126.323 19.1045 129.106 19.6424 131.699 20.6288C126.842 22.4755 122.66 25.9221 119.944 30.5418L27.3988 187.949C25.304 191.512 24.1998 195.57 24.1998 199.703C24.1994 212.511 34.5822 222.894 47.3907 222.894Z" fill="white" fill-opacity="0.1"/>
<path d="M120.861 44.5771H122.156L212.081 197.419H31L120.861 44.5771Z" fill="#0F6DB4"/>
<path d="M192.321 191.985C192.513 194.953 190.163 197.419 187.237 197.419H44.5845H39.4897H30.4648L120.325 44.5771H121.62L128.035 55.4799L59.6017 171.876C55.6078 178.669 60.5059 187.23 68.3856 187.23H187.062C189.776 187.23 192.145 189.277 192.321 191.985Z" fill="white" fill-opacity="0.3"/>
<path d="M143.924 136.648L118.45 180.317H111.172V136.648H92.9766L118.45 92.9785H125.729V136.648H143.924Z" fill="#0F6DB4"/>
<path d="M125.729 97.0954L107.115 129.005H113.356C117.576 129.005 120.998 132.427 120.998 136.647V144.289V175.95L118.45 180.316H111.172V144.29V136.648H102.657H92.9766L118.45 92.9785H125.729V97.0954Z" fill="white" fill-opacity="0.3"/>
<path d="M180.863 222.895C180.863 225.006 179.153 226.716 177.042 226.716H27.0123C12.118 226.716 0 214.598 0 199.703C0 194.894 1.28846 190.16 3.72642 186.013L96.2711 28.606C101.103 20.3893 110.025 15.2842 119.557 15.2842H123.463C132.991 15.2842 141.912 20.386 146.743 28.5989L158.003 47.7368C159.074 49.5551 158.467 51.8976 156.648 52.9676C154.83 54.0387 152.487 53.4313 151.417 51.6121L140.157 32.4742C136.692 26.5854 130.295 22.9266 123.463 22.9266H119.557C112.721 22.9266 106.323 26.5873 102.859 32.4794L10.3143 189.886C8.56642 192.86 7.64191 196.255 7.64191 199.704C7.64191 210.384 16.3317 219.073 27.0123 219.073H177.042C179.153 219.074 180.863 220.784 180.863 222.895ZM111.174 145.564C109.064 145.564 107.353 147.274 107.353 149.385V180.317C107.353 182.428 109.064 184.138 111.174 184.138H118.453C119.812 184.138 121.069 183.417 121.754 182.242L147.228 138.573C147.917 137.391 147.922 135.93 147.24 134.744C146.559 133.558 145.295 132.826 143.927 132.826H129.552V92.9789C129.552 90.8681 127.842 89.158 125.731 89.158H118.453C117.094 89.158 115.837 89.8797 115.152 91.0538L89.678 134.723C88.9889 135.905 88.9837 137.366 89.6653 138.552C90.3464 139.738 91.6102 140.47 92.9786 140.47H111.174C113.284 140.47 114.995 138.759 114.995 136.649C114.995 134.538 113.284 132.828 111.174 132.828H99.6307L120.647 96.8004H121.91V136.648C121.91 138.759 123.62 140.469 125.731 140.469H137.274L116.258 176.496H114.996V149.385C114.995 147.274 113.284 145.564 111.174 145.564ZM238.269 184.161L165.779 60.9518C164.708 59.133 162.367 58.5247 160.548 59.5962C158.729 60.6667 158.122 63.0083 159.193 64.8271L231.682 188.037C233.433 191.012 234.358 194.408 234.358 197.859V199.704C234.358 210.384 225.668 219.074 214.987 219.074H192.326C190.215 219.074 188.505 220.784 188.505 222.895C188.505 225.006 190.215 226.716 192.326 226.716H214.987C229.882 226.716 242 214.599 242 199.704V197.859C242 193.046 240.71 188.309 238.269 184.161ZM125.45 42.6415C124.763 41.4745 123.51 40.758 122.157 40.758H120.862C119.508 40.758 118.254 41.475 117.568 42.6425L27.7081 195.484C26.6384 197.303 27.2458 199.645 29.0655 200.715C29.6738 201.073 30.3403 201.243 30.9987 201.243C32.3084 201.243 33.5841 200.569 34.2964 199.358L121.512 51.016L139.847 82.1797C140.917 83.9985 143.258 84.6063 145.078 83.5353C146.896 82.4647 147.504 80.1232 146.433 78.3044L125.45 42.6415ZM49.6738 201.242H212.082C213.453 201.242 214.719 200.508 215.399 199.318C216.08 198.128 216.071 196.665 215.375 195.483L155.425 93.5887C154.354 91.7708 152.012 91.1621 150.194 92.2336C148.375 93.3041 147.768 95.6457 148.839 97.4649L205.401 193.6H49.6738C47.5634 193.6 45.8529 195.31 45.8529 197.421C45.8529 199.532 47.5634 201.242 49.6738 201.242Z" fill="#011932"/>
</g>
<defs>
<clipPath id="clip0_1135_3173">
<rect width="242" height="242" fill="white"/>
</clipPath>
</defs>
</svg>
