<svg width="242" height="242" viewBox="0 0 242 242" fill="none" xmlns="http://www.w3.org/2000/svg">
<g clip-path="url(#clip0_1135_3116)">
<path d="M58.1923 226.859H23.4258V183.941C23.4258 181.325 25.546 179.205 28.1616 179.205H53.4565C56.0721 179.205 58.1923 181.325 58.1923 183.941V226.859Z" fill="#0F6DB4"/>
<path d="M111.653 226.859H76.8867V158.092C76.8867 155.477 79.0069 153.356 81.6225 153.356H106.917C109.533 153.356 111.653 155.477 111.653 158.092V226.859Z" fill="#0F6DB4"/>
<path d="M165.118 226.858H130.352V132.243C130.352 129.627 132.472 127.507 135.087 127.507H160.382C162.998 127.507 165.118 129.627 165.118 132.243V226.858Z" fill="#0F6DB4"/>
<path d="M218.571 226.858H183.805V106.393C183.805 103.777 185.925 101.657 188.54 101.657H213.835C216.451 101.657 218.571 103.777 218.571 106.393V226.858Z" fill="#0F6DB4"/>
<path d="M23.4258 218.333H58.1923V226.857H23.4258V218.333Z" fill="white" fill-opacity="0.3"/>
<path d="M76.8867 218.333H111.653V226.857H76.8867V218.333Z" fill="white" fill-opacity="0.3"/>
<path d="M130.352 218.333H165.118V226.857H130.352V218.333Z" fill="white" fill-opacity="0.3"/>
<path d="M183.805 218.333H218.571V226.857H183.805V218.333Z" fill="white" fill-opacity="0.3"/>
<path d="M185.162 54.2889L199.955 64.5742L194.993 15.1475L146.887 27.6765L161.679 37.9618C161.679 37.9618 134.58 90.8106 36.6654 121.026C31.6232 122.583 33.008 130.051 38.2723 129.685C77.5028 126.96 142.285 112.956 185.162 54.2889Z" fill="#FDC600"/>
<path d="M180.919 51.2931C179.865 50.5486 178.416 50.7897 177.645 51.8244C133.601 111.01 77.0955 118.463 38.2704 121.161C37.6983 121.2 37.175 121.143 36.6981 121.015L36.6635 121.026C31.6559 122.606 33.0586 130.047 38.2969 129.683C77.5303 126.954 142.293 112.942 185.161 54.2885L180.919 51.2931Z" fill="white" fill-opacity="0.1"/>
<path d="M238.448 223.307H222.124V156.839C222.124 154.877 220.534 153.287 218.572 153.287C216.61 153.287 215.02 154.877 215.02 156.839V223.307H187.357V106.394C187.357 105.742 187.888 105.21 188.541 105.21H213.836C214.489 105.21 215.02 105.742 215.02 106.394V142.631C215.02 144.593 216.61 146.183 218.572 146.183C220.534 146.183 222.124 144.593 222.124 142.631V106.394C222.124 101.825 218.406 98.1064 213.836 98.1064H188.541C183.972 98.1064 180.254 101.825 180.254 106.394V223.308H168.665V132.243C168.665 127.674 164.946 123.955 160.377 123.955H135.082C130.512 123.955 126.794 127.674 126.794 132.243V223.308H115.205V158.092C115.205 153.523 111.488 149.804 106.918 149.804H81.6227C77.0531 149.804 73.335 153.523 73.335 158.092V189.151C73.335 191.112 74.9253 192.702 76.8869 192.702C78.8484 192.702 80.4387 191.112 80.4387 189.151V158.092C80.4387 157.439 80.9701 156.908 81.6227 156.908H106.918C107.571 156.908 108.102 157.439 108.102 158.092V223.307H80.4387V203.358C80.4387 201.396 78.8484 199.806 76.8869 199.806C74.9253 199.806 73.335 201.396 73.335 203.358V223.307H61.746V183.941C61.746 179.372 58.0284 175.653 53.4583 175.653H28.1639C23.5943 175.653 19.8762 179.372 19.8762 183.941V223.307H3.55186C1.59029 223.307 0 224.897 0 226.859C0 228.821 1.59029 230.411 3.55186 230.411H238.448C240.41 230.411 242 228.821 242 226.859C242 224.897 240.41 223.307 238.448 223.307ZM133.898 132.243C133.898 131.591 134.429 131.059 135.082 131.059H160.377C161.029 131.059 161.561 131.591 161.561 132.243V223.308H133.898V132.243ZM26.9799 183.941C26.9799 183.289 27.5113 182.757 28.1639 182.757H53.4588C54.1119 182.757 54.6428 183.289 54.6428 183.941V223.307H26.9799V183.941Z" fill="#011932"/>
<path d="M37.9275 133.25C38.1222 133.25 38.3187 133.243 38.5157 133.229C64.7104 131.41 89.3428 125.693 111.729 116.238C141.874 103.507 166.829 84.3151 185.953 59.1675L197.925 67.4912C200.283 69.2496 203.877 67.136 203.486 64.2201L198.525 14.7934C198.363 12.6827 196.131 11.1298 194.095 11.7109L145.99 24.2399C143.118 24.8878 142.387 28.9937 144.857 30.5935L156.938 38.9929C154.534 42.7693 149.239 50.2571 140.005 59.4161C138.612 60.798 138.603 63.0466 139.985 64.4389C141.366 65.8317 143.615 65.8407 145.008 64.4593C159.242 50.3395 164.616 40.0154 164.838 39.583C165.649 38.0003 165.165 36.0615 163.705 35.0461L155.252 29.1685L191.871 19.631L195.649 57.2557L187.188 51.3733C185.603 50.2718 183.431 50.6364 182.293 52.1935C163.682 77.658 139.011 97.0043 108.966 109.694C81.9824 121.09 55.4936 124.929 38.0241 126.142C37.0036 126.404 36.6943 124.53 37.7106 124.421C76.6272 112.411 109.128 95.5281 134.309 74.2407C135.808 72.9743 135.995 70.7333 134.729 69.2354C133.463 67.7374 131.221 67.5489 129.724 68.8158C105.276 89.4824 73.6142 105.907 35.6165 117.633C31.6706 118.851 29.3552 122.678 30.1111 126.732C30.8295 130.588 34.0674 133.25 37.9275 133.25Z" fill="#011932"/>
</g>
<defs>
<clipPath id="clip0_1135_3116">
<rect width="242" height="242" fill="white"/>
</clipPath>
</defs>
</svg>
