<svg width="242" height="242" viewBox="0 0 242 242" fill="none" xmlns="http://www.w3.org/2000/svg">
<g clip-path="url(#clip0_1135_3243)">
<g clip-path="url(#clip1_1135_3243)">
<path d="M132.74 86.9577L129.286 78.787C128.365 76.6093 125.289 76.58 124.327 78.7399L120.667 86.9577L117.359 96.3576H136.897L132.74 86.9577Z" fill="#0F6DB4"/>
<path d="M122 176.177V151.95H131.717V176.177C131.717 176.505 131.451 176.771 131.123 176.771H122.594C122.266 176.771 122 176.505 122 176.177Z" fill="#0F6DB4"/>
<path d="M135.655 149.856V156.897C135.655 159.205 133.784 161.076 131.476 161.076H121.925C119.617 161.076 117.746 159.205 117.746 156.897V149.856V138.759H135.655V149.856H135.655Z" fill="#0F6DB4"/>
<path d="M172.498 105.926C160.984 94.4125 145.153 87.2181 127.642 86.969C127.642 86.969 126.892 86.957 126.703 86.957C126.991 87.0989 127.271 87.2483 127.554 87.3948L132.305 94.616L147.9 131.467L154.257 146.466L159.706 152.476C160.603 152.413 161.484 152.152 162.286 151.683C170.501 146.871 179.688 147.421 189.747 152.759C189.926 152.853 190.111 152.897 190.294 152.897C190.907 152.897 191.467 152.403 191.467 151.721C191.467 133.837 184.217 117.645 172.498 105.926Z" fill="#0F6DB4"/>
<path d="M80.9103 105.926C69.1912 117.645 61.9414 133.837 61.9414 151.721C61.9414 152.548 62.8598 153.042 63.5518 152.589C72.2578 146.905 81.5771 147.207 91.3714 152.17C92.1106 152.545 92.9032 152.755 93.7052 152.809L98.986 145.931L100.669 141.872L111.755 109.206L126.705 86.957C108.821 86.957 92.6295 94.2068 80.9103 105.926Z" fill="#0F6DB4"/>
<path d="M92.2128 105.044C101.387 95.8694 113.304 89.4349 126.627 87.0728L126.705 86.957C108.821 86.957 92.6295 94.2068 80.9103 105.926C69.1912 117.645 61.9414 133.837 61.9414 151.721C61.9414 152.548 62.8598 153.042 63.5518 152.589C66.7165 150.523 69.9624 149.252 73.2825 148.704C73.8345 131.669 80.9619 116.295 92.2128 105.044Z" fill="white" fill-opacity="0.1"/>
<path d="M126.705 86.957L120.825 95.9911L118 144.12L126.705 152.787C127.693 152.825 128.69 152.611 129.602 152.161C138.817 147.597 147.712 146.861 156.148 151.655C157.245 152.277 158.488 152.56 159.708 152.476C159.718 148.148 159.038 102.897 126.705 86.957Z" fill="#0F6DB4"/>
<path d="M96.9353 152.117C95.9289 152.649 94.8092 152.881 93.702 152.809C93.702 152.809 92.7333 103.705 126.702 86.957V87.9195V151.793V152.787C125.774 152.759 124.849 152.516 124.019 152.048C115.071 147.028 106.038 147.295 96.9353 152.117Z" fill="#0F6DB4"/>
<path d="M197.757 91.2663C197.757 95.3422 194.452 98.6466 190.376 98.6466C186.3 98.6466 182.996 95.3422 182.996 91.2663C182.996 88.3896 186.672 84.3024 188.835 82.1457C189.687 81.2965 191.066 81.2965 191.918 82.1457C194.081 84.3021 197.757 88.3896 197.757 91.2663Z" fill="white"/>
<path d="M88.7252 78.1659C88.7252 81.6939 85.8652 84.5539 82.3372 84.5539C78.8092 84.5539 75.9492 81.6939 75.9492 78.1659C75.9492 75.6761 79.1306 72.1384 81.0033 70.272C81.7405 69.5369 82.9339 69.5369 83.6711 70.272C85.5435 72.1387 88.7252 75.6761 88.7252 78.1659Z" fill="white"/>
<path d="M176.037 53.1787C176.037 57.4509 172.574 60.9141 168.302 60.9141C164.03 60.9141 160.566 57.4509 160.566 53.1787C160.566 50.1637 164.419 45.8799 166.686 43.6197C167.579 42.7296 169.024 42.7296 169.917 43.6197C172.185 45.8799 176.037 50.164 176.037 53.1787Z" fill="white"/>
<path d="M134.494 85.0462L131.46 77.8669C130.662 75.9801 128.894 74.7959 126.845 74.7767C126.828 74.7764 126.811 74.7764 126.794 74.7764C124.767 74.7764 123 75.9231 122.173 77.7788L118.935 85.05C85.5702 88.9136 59.582 117.337 59.582 151.72C59.582 152.968 60.2633 154.112 61.3604 154.706C62.4587 155.301 63.7919 155.246 64.8399 154.562C72.4954 149.565 80.8247 149.47 90.3057 154.273C92.7376 155.505 95.63 155.477 98.0427 154.199C104.028 151.028 109.76 150.038 115.391 151.224V156.895C115.391 159.695 117.164 162.084 119.644 163.013V174.552C119.644 175.855 120.7 176.911 122.003 176.911C123.306 176.911 124.362 175.855 124.362 174.552V163.432H129.361V174.552C129.361 175.855 130.417 176.911 131.72 176.911C133.023 176.911 134.079 175.855 134.079 174.552V162.891C136.394 161.883 138.018 159.576 138.018 156.895V151.507C144.148 149.994 149.746 150.727 154.981 153.702C157.649 155.218 160.905 155.225 163.478 153.717C170.848 149.399 179.079 149.766 188.641 154.84C189.164 155.118 189.731 155.256 190.297 155.256C190.925 155.256 191.552 155.085 192.115 154.746C193.187 154.102 193.827 152.97 193.827 151.72C193.827 133.791 186.845 116.935 174.167 104.257C163.344 93.4342 149.475 86.767 134.494 85.0462ZM126.483 79.698C126.51 79.637 126.574 79.4942 126.795 79.4942H126.8C127.026 79.4964 127.088 79.6421 127.114 79.704L129.204 84.648C128.405 84.6188 127.604 84.5999 126.801 84.5986C126.794 84.5983 126.787 84.5986 126.78 84.5983C126.755 84.5983 126.729 84.5974 126.704 84.5974C126.679 84.5974 126.655 84.5983 126.63 84.5983C126.623 84.5986 126.616 84.5983 126.608 84.5986C125.829 84.5996 125.053 84.6185 124.279 84.6458L126.483 79.698ZM96.1112 149.887C96.3361 144.057 97.5542 129.187 103.985 114.997C104.522 113.81 103.996 112.412 102.81 111.874C101.622 111.337 100.225 111.863 99.6876 113.049C92.9159 127.992 91.6248 143.243 91.3911 149.551C86.4584 147.206 81.6934 146.033 77.1205 146.033C72.6713 146.033 68.4035 147.143 64.3439 149.363C65.4706 119.194 88.1175 94.4319 117.345 90.0166C112.521 93.7132 108.291 98.3242 104.718 103.813C104.008 104.905 104.316 106.367 105.408 107.077C105.806 107.336 106.252 107.459 106.693 107.459C107.464 107.459 108.22 107.082 108.672 106.387C112.936 99.8373 118.199 94.66 124.345 90.9429V149.537C115.253 144.75 105.761 144.868 96.1112 149.887ZM133.3 156.895C133.3 157.898 132.484 158.715 131.48 158.715H121.929C120.925 158.715 120.109 157.898 120.109 156.895V152.737C121.029 153.134 121.948 153.587 122.866 154.102C125.252 155.44 128.161 155.505 130.647 154.274C131.543 153.83 132.426 153.43 133.3 153.07L133.3 156.895ZM162.008 149.134C161.927 147.113 161.738 144.2 161.302 140.68C161.142 139.387 159.968 138.471 158.671 138.629C157.379 138.79 156.46 139.967 156.62 141.26C157.056 144.776 157.232 147.676 157.302 149.595C148.838 144.788 139.339 144.861 129.063 149.8V90.9338C144.993 100.543 151.916 118.025 154.921 131.433C155.167 132.531 156.141 133.277 157.22 133.277C157.391 133.277 157.565 133.258 157.738 133.219C159.009 132.935 159.809 131.673 159.524 130.402C156.611 117.401 150.195 100.795 136.094 90.021C165.44 94.4687 188.145 119.429 189.079 149.775C179.176 145.01 170.082 144.795 162.008 149.134Z" fill="#011932"/>
<path d="M193.583 80.4762C191.815 78.7136 188.938 78.7136 187.169 80.4762C182.835 84.7965 180.637 88.4271 180.637 91.2672C180.637 96.6374 185.006 101.006 190.376 101.006C195.746 101.006 200.115 96.6374 200.115 91.2672C200.116 88.4271 197.918 84.7965 193.583 80.4762ZM190.376 96.2886C187.608 96.2886 185.355 94.036 185.355 91.2672C185.355 90.2082 186.673 87.6597 190.376 83.9417C194.079 87.6597 195.398 90.2082 195.398 91.2672C195.398 94.0357 193.145 96.2886 190.376 96.2886Z" fill="#011932"/>
<path d="M82.34 86.9134C87.1633 86.9134 91.0873 82.9894 91.0873 78.1665C91.0873 75.621 89.1536 72.4031 85.34 68.6018C83.6859 66.9534 80.9954 66.9527 79.341 68.6018C75.5274 72.4038 73.5938 75.6216 73.5938 78.1665C73.5934 82.9894 77.5171 86.9134 82.34 86.9134ZM82.34 72.2776C85.1053 75.1027 86.3694 77.2965 86.3694 78.1668C86.3694 80.3883 84.5618 82.1958 82.34 82.1958C80.1182 82.1958 78.311 80.3886 78.311 78.1668C78.3113 77.2968 79.5747 75.1033 82.34 72.2776Z" fill="#011932"/>
<path d="M168.301 63.2728C173.867 63.2728 178.396 58.7446 178.396 53.1785C178.396 50.2336 176.103 46.4552 171.582 41.9484C169.773 40.1462 166.83 40.1459 165.021 41.9487C160.499 46.4559 158.207 50.2339 158.207 53.1785C158.207 58.7443 162.735 63.2728 168.301 63.2728ZM168.301 45.3399C172.268 49.3055 173.678 52.0396 173.678 53.1785C173.678 56.1432 171.266 58.555 168.301 58.555C165.336 58.555 162.925 56.1432 162.925 53.1785C162.925 52.0396 164.334 49.3058 168.301 45.3399Z" fill="#011932"/>
<path d="M190.382 68.7007C191.685 68.7007 192.741 67.6449 192.741 66.3418V32.9214C192.741 31.6184 191.685 30.5625 190.382 30.5625C189.079 30.5625 188.023 31.6184 188.023 32.9214V66.3418C188.023 67.6446 189.08 68.7007 190.382 68.7007Z" fill="#011932"/>
<path d="M166.855 72.608V87.9209C166.855 89.2239 167.911 90.2798 169.214 90.2798C170.517 90.2798 171.573 89.2239 171.573 87.9209V72.608C171.573 71.3049 170.517 70.249 169.214 70.249C167.911 70.249 166.855 71.3049 166.855 72.608Z" fill="#011932"/>
<path d="M168.3 29.8171C169.603 29.8171 170.659 28.7612 170.659 27.4581V22.8941C170.659 21.591 169.603 20.5352 168.3 20.5352C166.997 20.5352 165.941 21.591 165.941 22.8941V27.4581C165.941 28.7609 166.997 29.8171 168.3 29.8171Z" fill="#011932"/>
<path d="M82.3433 56.926C83.6464 56.926 84.7022 55.8702 84.7022 54.5671V48.8365C84.7022 47.5334 83.6464 46.4775 82.3433 46.4775C81.0402 46.4775 79.9844 47.5334 79.9844 48.8365V54.5671C79.9844 55.8702 81.0405 56.926 82.3433 56.926Z" fill="#011932"/>
<path d="M82.3433 39.232C83.6464 39.232 84.7022 38.1761 84.7022 36.8731V18.3589C84.7022 17.0559 83.6464 16 82.3433 16C81.0402 16 79.9844 17.0559 79.9844 18.3589V36.8731C79.9844 38.1761 81.0405 39.232 82.3433 39.232Z" fill="#011932"/>
<path d="M63.0304 110.097V66.3404C63.0304 65.0373 61.9745 63.9814 60.6714 63.9814C59.3684 63.9814 58.3125 65.0373 58.3125 66.3404V110.097C58.3125 111.4 59.3684 112.456 60.6714 112.456C61.9745 112.456 63.0304 111.4 63.0304 110.097Z" fill="#011932"/>
<path d="M60.6714 58.1264C61.9745 58.1264 63.0304 57.0705 63.0304 55.7675V50.7583C63.0304 49.4553 61.9745 48.3994 60.6714 48.3994C59.3684 48.3994 58.3125 49.4553 58.3125 50.7583V55.7675C58.3125 57.0702 59.3687 58.1264 60.6714 58.1264Z" fill="#011932"/>
<path d="M104.433 74.9665C105.736 74.9665 106.792 73.9107 106.792 72.6076V28.857C106.792 27.5539 105.736 26.498 104.433 26.498C103.13 26.498 102.074 27.5539 102.074 28.857V72.6076C102.074 73.9103 103.13 74.9665 104.433 74.9665Z" fill="#011932"/>
<path d="M146.71 78.7705C148.014 78.7705 149.069 77.7147 149.069 76.4116V38.358C149.069 37.0549 148.014 35.999 146.71 35.999C145.407 35.999 144.352 37.0549 144.352 38.358V76.4116C144.352 77.7147 145.407 78.7705 146.71 78.7705Z" fill="#011932"/>
<path d="M146.71 30.3374C148.014 30.3374 149.069 29.2815 149.069 27.9785V25.8853C149.069 24.5822 148.014 23.5264 146.71 23.5264C145.407 23.5264 144.352 24.5822 144.352 25.8853V27.9785C144.352 29.2812 145.407 30.3374 146.71 30.3374Z" fill="#011932"/>
<path d="M126.703 65.9761C128.006 65.9761 129.062 64.9203 129.062 63.6172V36.8726C129.062 35.5695 128.006 34.5137 126.703 34.5137C125.4 34.5137 124.344 35.5695 124.344 36.8726V63.6172C124.344 64.9203 125.4 65.9761 126.703 65.9761Z" fill="#011932"/>
</g>
<path d="M30.5633 237.342C29.7174 237.342 29.2944 236.886 29.2944 235.975V174.773C29.2944 173.862 29.7174 173.406 30.5633 173.406H43.6433C44.4242 173.406 44.8147 173.862 44.8147 174.773V235.975C44.8147 236.886 44.4242 237.342 43.6433 237.342H30.5633ZM57.0634 237.342C56.2175 237.342 55.7945 236.886 55.7945 235.975V174.773C55.7945 173.862 56.2175 173.406 57.0634 173.406H76.6834C85.4034 173.406 91.7482 175.261 95.7177 178.97C99.6873 182.679 101.672 188.145 101.672 195.369C101.672 202.267 99.6222 207.603 95.5225 211.377C91.4228 215.086 85.1756 216.941 76.781 216.941H71.3148V235.975C71.3148 236.886 70.9243 237.342 70.1434 237.342H57.0634ZM71.3148 203.666H76.5858C79.6443 203.666 81.987 203.015 83.6139 201.713C85.2407 200.412 86.0542 198.297 86.0542 195.369C86.0542 192.245 85.2733 190.065 83.7115 188.829C82.2148 187.527 79.8721 186.876 76.6834 186.876H71.3148V203.666ZM132.787 238.416C124.457 238.416 118.307 236.528 114.338 232.754C110.433 228.98 108.481 223.058 108.481 214.989V195.857C108.481 188.243 110.531 182.419 114.631 178.384C118.796 174.35 124.88 172.332 132.884 172.332C137.309 172.332 141.181 172.918 144.5 174.089C147.819 175.196 150.389 176.953 152.211 179.36C154.099 181.703 155.042 184.859 155.042 188.829C155.042 189.74 154.587 190.195 153.676 190.195H142.157C141.246 190.195 140.791 189.74 140.791 188.829C140.791 187.397 140.107 186.388 138.741 185.803C137.439 185.152 135.552 184.827 133.079 184.827C130.021 184.827 127.711 185.575 126.149 187.072C124.587 188.503 123.806 191.041 123.806 194.685V216.258C123.806 219.251 124.457 221.626 125.759 223.383C127.125 225.075 129.403 225.921 132.591 225.921C135.715 225.921 138.025 225.173 139.522 223.676C141.084 222.179 141.864 219.902 141.864 216.843V215.184C141.864 212.581 141.214 210.759 139.912 209.718C138.611 208.611 136.691 208.058 134.153 208.058C132.136 208.058 130.086 208.481 128.004 209.327C125.986 210.108 124.002 211.247 122.049 212.744L122.147 202.202C124.555 200.379 127.255 198.915 130.249 197.809C133.242 196.703 136.366 196.15 139.619 196.15C145.671 196.15 150.096 197.744 152.895 200.933C155.758 204.121 157.19 208.872 157.19 215.184C157.19 222.928 155.14 228.752 151.04 232.656C147.005 236.496 140.921 238.416 132.787 238.416ZM189.504 238.416C181.175 238.416 175.025 236.528 171.056 232.754C167.151 228.98 165.199 223.058 165.199 214.989V195.857C165.199 188.243 167.249 182.419 171.349 178.384C175.513 174.35 181.598 172.332 189.602 172.332C194.027 172.332 197.899 172.918 201.218 174.089C204.537 175.196 207.107 176.953 208.929 179.36C210.816 181.703 211.76 184.859 211.76 188.829C211.76 189.74 211.304 190.195 210.393 190.195H198.875C197.964 190.195 197.509 189.74 197.509 188.829C197.509 187.397 196.825 186.388 195.459 185.803C194.157 185.152 192.27 184.827 189.797 184.827C186.739 184.827 184.429 185.575 182.867 187.072C181.305 188.503 180.524 191.041 180.524 194.685V216.258C180.524 219.251 181.175 221.626 182.476 223.383C183.843 225.075 186.121 225.921 189.309 225.921C192.433 225.921 194.743 225.173 196.24 223.676C197.801 222.179 198.582 219.902 198.582 216.843V215.184C198.582 212.581 197.932 210.759 196.63 209.718C195.329 208.611 193.409 208.058 190.871 208.058C188.854 208.058 186.804 208.481 184.721 209.327C182.704 210.108 180.719 211.247 178.767 212.744L178.865 202.202C181.272 200.379 183.973 198.915 186.967 197.809C189.96 196.703 193.084 196.15 196.337 196.15C202.389 196.15 206.814 197.744 209.612 200.933C212.476 204.121 213.907 208.872 213.907 215.184C213.907 222.928 211.858 228.752 207.758 232.656C203.723 236.496 197.639 238.416 189.504 238.416Z" fill="#011932"/>
</g>
<defs>
<clipPath id="clip0_1135_3243">
<rect width="242" height="242" fill="white"/>
</clipPath>
<clipPath id="clip1_1135_3243">
<rect width="160.912" height="160.912" fill="white" transform="translate(48.8867 16)"/>
</clipPath>
</defs>
</svg>
