<svg width="242" height="242" viewBox="0 0 242 242" fill="none" xmlns="http://www.w3.org/2000/svg">
<path d="M34.196 136.225H207.81C212.284 136.225 215.912 139.852 215.912 144.327V199.472C215.912 203.947 212.284 207.574 207.81 207.574H34.196C29.7214 207.574 26.0938 203.947 26.0938 199.472V144.327C26.0938 139.852 29.7209 136.225 34.196 136.225Z" fill="#0F6DB4"/>
<path d="M207.809 136.225H201.732V186.001C201.732 190.476 198.104 194.104 193.63 194.104H26.0938V199.472C26.0938 203.947 29.7214 207.574 34.196 207.574H207.81C212.284 207.574 215.912 203.947 215.912 199.472V144.327C215.912 139.852 212.284 136.225 207.809 136.225Z" fill="white" fill-opacity="0.1"/>
<path d="M55.4419 183.967H100.288C106.952 183.967 112.354 178.564 112.354 171.9C112.354 165.235 106.952 159.833 100.288 159.833H55.4419C48.7775 159.833 43.375 165.235 43.375 171.9C43.375 178.564 48.7775 183.967 55.4419 183.967Z" fill="#0F6DB4"/>
<path d="M101.524 159.896C101.588 160.397 101.624 160.907 101.624 161.427C101.624 168.091 96.2215 173.494 89.557 173.494H43.4844C44.2647 179.404 49.3198 183.967 55.4435 183.967H100.289C106.954 183.967 112.356 178.564 112.356 171.9C112.356 165.652 107.608 160.514 101.524 159.896Z" fill="#0F6DB4"/>
<path d="M104.967 201.28H86.8393V184.484C86.8393 179.541 82.9961 175.332 78.0568 175.156C72.8713 174.972 68.6094 179.121 68.6094 184.265V226.199C68.6094 232.968 74.0964 238.454 80.8644 238.454H104.967C111.735 238.454 117.222 232.967 117.222 226.199V213.535C117.223 206.767 111.735 201.28 104.967 201.28Z" fill="#FFDFCF"/>
<path d="M76.4385 184.484V196.554C76.4385 199.164 78.5546 201.28 81.1651 201.28H86.837V184.5C86.837 179.583 83.042 175.374 78.1302 175.159C76.0273 175.067 74.08 175.697 72.4961 176.809C74.8887 178.512 76.4385 181.348 76.4385 184.484Z" fill="#FFCEBF"/>
<path d="M106.823 201.42V215.565C106.823 222.333 101.336 227.82 94.5679 227.82H68.7188C69.5123 233.821 74.6454 238.454 80.8641 238.454H104.967C111.735 238.454 117.222 232.967 117.222 226.199V213.535C117.221 207.398 112.71 202.315 106.823 201.42Z" fill="#FFCEBF"/>
<path d="M208.793 120.462H125.345C121.414 120.462 118.227 117.275 118.227 113.343V10.6636C118.227 6.73204 121.414 3.54492 125.345 3.54492H208.793C212.724 3.54492 215.911 6.73204 215.911 10.6636V113.344C215.911 117.275 212.724 120.462 208.793 120.462Z" fill="#0F6DB4"/>
<path d="M167.069 69.3428C179.648 69.3428 189.845 59.1457 189.845 46.5669C189.845 33.9881 179.648 23.791 167.069 23.791C154.49 23.791 144.293 33.9881 144.293 46.5669C144.293 59.1457 154.49 69.3428 167.069 69.3428Z" fill="#0F6DB4"/>
<path d="M173.844 24.8154C177.251 28.7966 179.314 33.9632 179.314 39.6143C179.314 52.1931 169.117 62.3907 156.538 62.3907C154.178 62.3907 151.902 62.0314 149.762 61.3655C153.939 66.2456 160.14 69.3425 167.067 69.3425C179.646 69.3425 189.843 59.1454 189.843 46.5661C189.843 36.3473 183.113 27.7005 173.844 24.8154Z" fill="#0F6DB4"/>
<path d="M189.341 102.748H144.801C140.329 102.748 136.703 99.122 136.703 94.6498C136.703 90.1775 140.329 86.5518 144.801 86.5518H189.341C193.813 86.5518 197.439 90.1775 197.439 94.6498C197.439 99.122 193.813 102.748 189.341 102.748Z" fill="#0F6DB4"/>
<path d="M189.34 86.5518H186.825C186.894 86.9757 186.939 87.4082 186.939 87.8516C186.939 92.3238 183.313 95.9496 178.841 95.9496H136.816C137.44 99.8027 140.772 102.748 144.801 102.748H189.341C193.813 102.748 197.439 99.122 197.439 94.6498C197.438 90.177 193.813 86.5518 189.34 86.5518Z" fill="#0F6DB4"/>
<path d="M94.8962 63.1644H33.6773C29.7457 63.1644 26.5586 59.9772 26.5586 56.0457V10.6636C26.5586 6.73204 29.7457 3.54492 33.6773 3.54492H94.8962C98.8277 3.54492 102.015 6.73204 102.015 10.6636V56.0462C102.015 59.9772 98.8277 63.1644 94.8962 63.1644Z" fill="#0F6DB4"/>
<path d="M94.8962 3.54492H87.8352V42.575C87.8352 46.5065 84.648 49.6937 80.7165 49.6937H26.5586V56.0457C26.5586 59.9772 29.7457 63.1644 33.6773 63.1644H94.8962C98.8277 63.1644 102.015 59.9772 102.015 56.0457V10.6636C102.015 6.73204 98.8277 3.54492 94.8962 3.54492Z" fill="#0F6DB4"/>
<path d="M94.8962 120.462H33.6773C29.7457 120.462 26.5586 117.275 26.5586 113.343V87.9605C26.5586 84.0289 29.7457 80.8418 33.6773 80.8418H94.8962C98.8277 80.8418 102.015 84.0289 102.015 87.9605V113.343C102.015 117.275 98.8277 120.462 94.8962 120.462Z" fill="#0F6DB4"/>
<path d="M94.8962 80.8428H87.8352V99.8733C87.8352 103.805 84.648 106.992 80.7165 106.992H26.5586V113.344C26.5586 117.276 29.7457 120.463 33.6773 120.463H94.8962C98.8277 120.463 102.015 117.276 102.015 113.344V87.9615C102.015 84.0299 98.8277 80.8428 94.8962 80.8428Z" fill="white" fill-opacity="0.1"/>
<path d="M208.792 3.54492H201.731V99.8732C201.731 103.805 198.544 106.992 194.613 106.992H118.227V113.344C118.227 117.275 121.414 120.463 125.345 120.463H208.793C212.724 120.463 215.911 117.275 215.911 113.344V10.6636C215.91 6.73204 212.723 3.54492 208.792 3.54492Z" fill="white" fill-opacity="0.1"/>
<path d="M200.287 160.141H139.791C137.833 160.141 136.246 161.727 136.246 163.686C136.246 165.644 137.833 167.23 139.791 167.23H200.287C202.245 167.23 203.832 165.644 203.832 163.686C203.832 161.727 202.245 160.141 200.287 160.141Z" fill="#011932"/>
<path d="M200.29 176.568H166.221C164.263 176.568 162.676 178.155 162.676 180.113C162.676 182.071 164.263 183.658 166.221 183.658H200.29C202.248 183.658 203.835 182.071 203.835 180.113C203.835 178.155 202.248 176.568 200.29 176.568Z" fill="#011932"/>
<path d="M41.7402 104.197H86.8283C88.7861 104.197 90.3733 102.611 90.3733 100.652C90.3733 98.6941 88.7861 97.1074 86.8283 97.1074H41.7402C39.7825 97.1074 38.1953 98.6941 38.1953 100.652C38.1953 102.611 39.7825 104.197 41.7402 104.197Z" fill="#011932"/>
<path d="M53.0879 28.3916H89.36C91.3177 28.3916 92.9049 26.8049 92.9049 24.8467C92.9049 22.8885 91.3177 21.3018 89.36 21.3018H53.0879C51.1301 21.3018 49.543 22.8885 49.543 24.8467C49.543 26.8049 51.1301 28.3916 53.0879 28.3916Z" fill="#011932"/>
<path d="M53.0879 45.4072H89.36C91.3177 45.4072 92.9049 43.8205 92.9049 41.8623C92.9049 39.9041 91.3177 38.3174 89.36 38.3174H53.0879C51.1301 38.3174 49.543 39.9041 49.543 41.8623C49.543 43.8205 51.1301 45.4072 53.0879 45.4072Z" fill="#011932"/>
<path d="M39.2129 28.3916H40.6781C42.6359 28.3916 44.223 26.8049 44.223 24.8467C44.223 22.8885 42.6359 21.3018 40.6781 21.3018H39.2129C37.2551 21.3018 35.668 22.8885 35.668 24.8467C35.668 26.8049 37.2551 28.3916 39.2129 28.3916Z" fill="#011932"/>
<path d="M39.2129 45.4072H40.6781C42.6359 45.4072 44.223 43.8205 44.223 41.8623C44.223 39.9041 42.6359 38.3174 40.6781 38.3174H39.2129C37.2551 38.3174 35.668 39.9041 35.668 41.8623C35.668 43.8205 37.2551 45.4072 39.2129 45.4072Z" fill="#011932"/>
<path d="M208.791 0H125.343C119.463 0 114.68 4.78375 114.68 10.6636V85.5508C114.68 87.509 116.267 89.0957 118.225 89.0957C120.182 89.0957 121.77 87.509 121.77 85.5508V10.6636C121.77 8.69309 123.373 7.08984 125.343 7.08984H208.791C210.761 7.08984 212.364 8.69309 212.364 10.6636V113.344C212.364 115.314 210.761 116.918 208.791 116.918H125.343C123.373 116.918 121.77 115.314 121.77 113.344V102.094C121.77 100.136 120.182 98.5488 118.225 98.5488C116.267 98.5488 114.68 100.136 114.68 102.094V113.344C114.68 119.223 119.463 124.008 125.343 124.008H208.791C214.671 124.008 219.454 119.224 219.454 113.344V10.6636C219.454 4.78375 214.671 0 208.791 0Z" fill="#011932"/>
<path d="M33.6753 66.7093H94.8942C100.774 66.7093 105.558 61.9255 105.558 56.0457V10.6636C105.558 4.78375 100.774 0 94.8942 0H33.6753C27.7955 0 23.0117 4.78375 23.0117 10.6636V17.4883C23.0117 19.4465 24.5989 21.0332 26.5566 21.0332C28.5144 21.0332 30.1016 19.4465 30.1016 17.4883V10.6636C30.1016 8.69309 31.7048 7.08984 33.6753 7.08984H94.8942C96.8647 7.08984 98.468 8.69309 98.468 10.6636V56.0462C98.468 58.0167 96.8647 59.6199 94.8942 59.6199H33.6753C31.7048 59.6199 30.1016 58.0167 30.1016 56.0462V34.0312C30.1016 32.073 28.5144 30.4863 26.5566 30.4863C24.5989 30.4863 23.0117 32.073 23.0117 34.0312V56.0457C23.0117 61.9255 27.7955 66.7093 33.6753 66.7093Z" fill="#011932"/>
<path d="M33.6753 124.007H94.8942C100.774 124.007 105.558 119.223 105.558 113.344V87.9615C105.558 82.0821 100.774 77.2979 94.8942 77.2979H33.6753C27.7955 77.2979 23.0117 82.0816 23.0117 87.9615V113.344C23.0117 119.223 27.7955 124.007 33.6753 124.007ZM30.1016 87.9615C30.1016 85.9909 31.7048 84.3877 33.6753 84.3877H94.8942C96.8647 84.3877 98.468 85.9909 98.468 87.9615V113.344C98.468 115.315 96.8647 116.918 94.8942 116.918H33.6753C31.7048 116.918 30.1016 115.315 30.1016 113.344V87.9615Z" fill="#011932"/>
<path d="M167.067 72.8877C181.581 72.8877 193.389 61.0803 193.389 46.5664C193.389 32.0525 181.581 20.2451 167.067 20.2451C152.554 20.2451 140.746 32.0525 140.746 46.5664C140.746 61.0803 152.554 72.8877 167.067 72.8877ZM167.067 27.3354C177.671 27.3354 186.299 35.9624 186.299 46.5669C186.299 57.1714 177.672 65.7983 167.067 65.7983C156.463 65.7983 147.836 57.1714 147.836 46.5669C147.836 35.9624 156.463 27.3354 167.067 27.3354Z" fill="#011932"/>
<path d="M133.156 94.6493C133.156 101.069 138.379 106.292 144.799 106.292H189.339C195.759 106.292 200.982 101.069 200.982 94.6493C200.982 88.2292 195.759 83.0059 189.339 83.0059H144.799C138.379 83.0059 133.156 88.2292 133.156 94.6493ZM144.799 90.0957H189.339C191.85 90.0957 193.892 92.1381 193.892 94.6493C193.892 97.16 191.85 99.2024 189.339 99.2024H144.799C142.288 99.2024 140.246 97.16 140.246 94.6493C140.246 92.1385 142.288 90.0957 144.799 90.0957Z" fill="#011932"/>
<path d="M207.807 132.68H34.1941C27.7716 132.68 22.5469 137.905 22.5469 144.327V164.012C22.5469 165.97 24.1341 167.557 26.0918 167.557C28.0495 167.557 29.6367 165.97 29.6367 164.012V144.327C29.6367 141.814 31.6814 139.77 34.1941 139.77H207.807C210.32 139.77 212.365 141.814 212.365 144.327V199.473C212.365 201.985 210.32 204.03 207.807 204.03H117.576C114.689 200.21 110.111 197.736 104.964 197.736H90.3816V187.512H100.287C108.895 187.512 115.899 180.509 115.899 171.9C115.899 163.292 108.895 156.288 100.287 156.288H55.4414C46.8329 156.288 39.8295 163.292 39.8295 171.9C39.8295 180.509 46.8329 187.512 55.4414 187.512H65.0618V204.03H34.1941C31.681 204.03 29.6367 201.986 29.6367 199.473V180.555C29.6367 178.596 28.0495 177.01 26.0918 177.01C24.1341 177.01 22.5469 178.596 22.5469 180.555V199.472C22.5469 205.895 27.7716 211.119 34.1941 211.119H65.0618V226.199C65.0618 234.912 72.1498 242 80.8618 242H104.964C113.677 242 120.765 234.912 120.765 226.199V213.535C120.765 212.714 120.702 211.907 120.58 211.119H207.807C214.23 211.119 219.455 205.894 219.455 199.472V144.327C219.455 137.905 214.23 132.68 207.807 132.68ZM46.9189 171.899C46.9189 167.2 50.7418 163.377 55.4409 163.377H100.287C104.986 163.377 108.809 167.2 108.809 171.899C108.809 176.598 104.986 180.421 100.287 180.421H89.743C88.1322 175.432 83.6273 171.807 78.1795 171.613C74.7092 171.487 71.4243 172.747 68.9305 175.155C67.3901 176.641 66.2789 178.444 65.6526 180.421H55.4409C50.7422 180.422 46.9189 176.599 46.9189 171.899ZM113.675 226.199C113.675 231.002 109.767 234.91 104.964 234.91H80.8613C76.0586 234.91 72.1512 231.002 72.1512 226.199V184.265C72.1512 182.74 72.7557 181.316 73.8537 180.257C74.9016 179.245 76.2685 178.695 77.7224 178.695C77.7905 178.695 77.8595 178.697 77.928 178.699C80.8854 178.804 83.2917 181.399 83.2917 184.484V201.28C83.2917 203.238 84.8789 204.825 86.8366 204.825H104.964C109.768 204.825 113.675 208.732 113.675 213.535V226.199H113.675Z" fill="#011932"/>
</svg>
